<svg viewBox="0 0 330 200" xmlns="http://www.w3.org/2000/svg"><g><g><g><g><g><line x1="48.875" y1="177" x2="43.875" y2="177" style="visibility: inherit;" fill="rgb(0, 0, 0)" stroke="rgb(204, 204, 204)" stroke-width="1px"></line><line x1="48.875" y1="160.9090909090909" x2="43.875" y2="160.9090909090909" style="visibility: inherit;" fill="rgb(0, 0, 0)" stroke="rgb(204, 204, 204)" stroke-width="1px"></line><line x1="48.875" y1="144.8181818181818" x2="43.875" y2="144.8181818181818" style="visibility: inherit;" fill="rgb(0, 0, 0)" stroke="rgb(204, 204, 204)" stroke-width="1px"></line><line x1="48.875" y1="128.72727272727275" x2="43.875" y2="128.72727272727275" style="visibility: inherit;" fill="rgb(0, 0, 0)" stroke="rgb(204, 204, 204)" stroke-width="1px"></line><line x1="48.875" y1="112.63636363636364" x2="43.875" y2="112.63636363636364" style="visibility: inherit;" fill="rgb(0, 0, 0)" stroke="rgb(204, 204, 204)" stroke-width="1px"></line><line x1="48.875" y1="96.54545454545455" x2="43.875" y2="96.54545454545455" style="visibility: inherit;" fill="rgb(0, 0, 0)" stroke="rgb(204, 204, 204)" stroke-width="1px"></line><line x1="48.875" y1="80.45454545454547" x2="43.875" y2="80.45454545454547" style="visibility: inherit;" fill="rgb(0, 0, 0)" stroke="rgb(204, 204, 204)" stroke-width="1px"></line><line x1="48.875" y1="64.36363636363636" x2="43.875" y2="64.36363636363636" style="visibility: inherit;" fill="rgb(0, 0, 0)" stroke="rgb(204, 204, 204)" stroke-width="1px"></line><line x1="48.875" y1="48.27272727272728" x2="43.875" y2="48.27272727272728" style="visibility: inherit;" fill="rgb(0, 0, 0)" stroke="rgb(204, 204, 204)" stroke-width="1px"></line><line x1="48.875" y1="32.18181818181819" x2="43.875" y2="32.18181818181819" style="visibility: inherit;" fill="rgb(0, 0, 0)" stroke="rgb(204, 204, 204)" stroke-width="1px"></line><line x1="48.875" y1="16.090909090909093" x2="43.875" y2="16.090909090909093" style="visibility: inherit;" fill="rgb(0, 0, 0)" stroke="rgb(204, 204, 204)" stroke-width="1px"></line><line x1="48.875" y1="0" x2="43.875" y2="0" style="visibility: inherit;" fill="rgb(0, 0, 0)" stroke="rgb(204, 204, 204)" stroke-width="1px"></line></g><g transform="translate(38.875, 0)"><text x="0" y="177" dx="0em" dy="0.3em" style="text-anchor: end; visibility: hidden; font-family: &quot;Helvetica Neue&quot;, sans-serif; font-size: 12px; font-weight: 200;" fill="rgb(50, 49, 63)" stroke="none" stroke-width="1px">10</text><text x="0" y="160.9090909090909" dx="0em" dy="0.3em" style="text-anchor: end; visibility: inherit; font-family: &quot;Helvetica Neue&quot;, sans-serif; font-size: 12px; font-weight: 200;" fill="rgb(50, 49, 63)" stroke="none" stroke-width="1px">10.5</text><text x="0" y="144.8181818181818" dx="0em" dy="0.3em" style="text-anchor: end; visibility: hidden; font-family: &quot;Helvetica Neue&quot;, sans-serif; font-size: 12px; font-weight: 200;" fill="rgb(50, 49, 63)" stroke="none" stroke-width="1px">11</text><text x="0" y="128.72727272727275" dx="0em" dy="0.3em" style="text-anchor: end; visibility: inherit; font-family: &quot;Helvetica Neue&quot;, sans-serif; font-size: 12px; font-weight: 200;" fill="rgb(50, 49, 63)" stroke="none" stroke-width="1px">11.5</text><text x="0" y="112.63636363636364" dx="0em" dy="0.3em" style="text-anchor: end; visibility: hidden; font-family: &quot;Helvetica Neue&quot;, sans-serif; font-size: 12px; font-weight: 200;" fill="rgb(50, 49, 63)" stroke="none" stroke-width="1px">12</text><text x="0" y="96.54545454545455" dx="0em" dy="0.3em" style="text-anchor: end; visibility: inherit; font-family: &quot;Helvetica Neue&quot;, sans-serif; font-size: 12px; font-weight: 200;" fill="rgb(50, 49, 63)" stroke="none" stroke-width="1px">12.5</text><text x="0" y="80.45454545454547" dx="0em" dy="0.3em" style="text-anchor: end; visibility: hidden; font-family: &quot;Helvetica Neue&quot;, sans-serif; font-size: 12px; font-weight: 200;" fill="rgb(50, 49, 63)" stroke="none" stroke-width="1px">13</text><text x="0" y="64.36363636363636" dx="0em" dy="0.3em" style="text-anchor: end; visibility: inherit; font-family: &quot;Helvetica Neue&quot;, sans-serif; font-size: 12px; font-weight: 200;" fill="rgb(50, 49, 63)" stroke="none" stroke-width="1px">13.5</text><text x="0" y="48.27272727272728" dx="0em" dy="0.3em" style="text-anchor: end; visibility: hidden; font-family: &quot;Helvetica Neue&quot;, sans-serif; font-size: 12px; font-weight: 200;" fill="rgb(50, 49, 63)" stroke="none" stroke-width="1px">14</text><text x="0" y="32.18181818181819" dx="0em" dy="0.3em" style="text-anchor: end; visibility: inherit; font-family: &quot;Helvetica Neue&quot;, sans-serif; font-size: 12px; font-weight: 200;" fill="rgb(50, 49, 63)" stroke="none" stroke-width="1px">14.5</text><text x="0" y="16.090909090909093" dx="0em" dy="0.3em" style="text-anchor: end; visibility: hidden; font-family: &quot;Helvetica Neue&quot;, sans-serif; font-size: 12px; font-weight: 200;" fill="rgb(50, 49, 63)" stroke="none" stroke-width="1px">15</text><text x="0" y="0" dx="0em" dy="0.3em" style="text-anchor: end; visibility: hidden; font-family: &quot;Helvetica Neue&quot;, sans-serif; font-size: 12px; font-weight: 200;" fill="rgb(50, 49, 63)" stroke="none" stroke-width="1px">15.5</text></g><line x1="48.875" y1="0" x2="48.875" y2="177" fill="rgb(0, 0, 0)" stroke="rgb(204, 204, 204)" stroke-width="1px"></line></g></g><g transform="translate(48, 0)" clip-path="url(#clip_0)"><clipPath id="clip_0"><rect width="281" height="177"></rect></clipPath><g><g><g><line x1="0" y1="0" x2="0" y2="177" fill="rgb(0, 0, 0)" stroke="rgb(60, 60, 60)" stroke-width="1px" opacity="0.25"></line><line x1="23.427083333333332" y1="0" x2="23.427083333333332" y2="177" fill="rgb(0, 0, 0)" stroke="rgb(60, 60, 60)" stroke-width="1px" opacity="0.25"></line><line x1="46.854166666666664" y1="0" x2="46.854166666666664" y2="177" fill="rgb(0, 0, 0)" stroke="rgb(60, 60, 60)" stroke-width="1px" opacity="0.25"></line><line x1="70.28125" y1="0" x2="70.28125" y2="177" fill="rgb(0, 0, 0)" stroke="rgb(60, 60, 60)" stroke-width="1px" opacity="0.25"></line><line x1="93.70833333333333" y1="0" x2="93.70833333333333" y2="177" fill="rgb(0, 0, 0)" stroke="rgb(60, 60, 60)" stroke-width="1px" opacity="0.25"></line><line x1="117.13541666666667" y1="0" x2="117.13541666666667" y2="177" fill="rgb(0, 0, 0)" stroke="rgb(60, 60, 60)" stroke-width="1px" opacity="0.25"></line><line x1="140.5625" y1="0" x2="140.5625" y2="177" fill="rgb(0, 0, 0)" stroke="rgb(60, 60, 60)" stroke-width="1px" opacity="0.25"></line><line x1="163.98958333333334" y1="0" x2="163.98958333333334" y2="177" fill="rgb(0, 0, 0)" stroke="rgb(60, 60, 60)" stroke-width="1px" opacity="0.25"></line><line x1="187.41666666666666" y1="0" x2="187.41666666666666" y2="177" fill="rgb(0, 0, 0)" stroke="rgb(60, 60, 60)" stroke-width="1px" opacity="0.25"></line><line x1="210.84375" y1="0" x2="210.84375" y2="177" fill="rgb(0, 0, 0)" stroke="rgb(60, 60, 60)" stroke-width="1px" opacity="0.25"></line><line x1="234.27083333333334" y1="0" x2="234.27083333333334" y2="177" fill="rgb(0, 0, 0)" stroke="rgb(60, 60, 60)" stroke-width="1px" opacity="0.25"></line><line x1="257.69791666666663" y1="0" x2="257.69791666666663" y2="177" fill="rgb(0, 0, 0)" stroke="rgb(60, 60, 60)" stroke-width="1px" opacity="0.25"></line><line x1="281.125" y1="0" x2="281.125" y2="177" fill="rgb(0, 0, 0)" stroke="rgb(60, 60, 60)" stroke-width="1px" opacity="0.25"></line></g><g><line x1="0" y1="177" x2="281.125" y2="177" fill="rgb(0, 0, 0)" stroke="rgb(60, 60, 60)" stroke-width="1px" opacity="0.25"></line><line x1="0" y1="160.9090909090909" x2="281.125" y2="160.9090909090909" fill="rgb(0, 0, 0)" stroke="rgb(60, 60, 60)" stroke-width="1px" opacity="0.25"></line><line x1="0" y1="144.8181818181818" x2="281.125" y2="144.8181818181818" fill="rgb(0, 0, 0)" stroke="rgb(60, 60, 60)" stroke-width="1px" opacity="0.25"></line><line x1="0" y1="128.72727272727275" x2="281.125" y2="128.72727272727275" fill="rgb(0, 0, 0)" stroke="rgb(60, 60, 60)" stroke-width="1px" opacity="0.25"></line><line x1="0" y1="112.63636363636364" x2="281.125" y2="112.63636363636364" fill="rgb(0, 0, 0)" stroke="rgb(60, 60, 60)" stroke-width="1px" opacity="0.25"></line><line x1="0" y1="96.54545454545455" x2="281.125" y2="96.54545454545455" fill="rgb(0, 0, 0)" stroke="rgb(60, 60, 60)" stroke-width="1px" opacity="0.25"></line><line x1="0" y1="80.45454545454547" x2="281.125" y2="80.45454545454547" fill="rgb(0, 0, 0)" stroke="rgb(60, 60, 60)" stroke-width="1px" opacity="0.25"></line><line x1="0" y1="64.36363636363636" x2="281.125" y2="64.36363636363636" fill="rgb(0, 0, 0)" stroke="rgb(60, 60, 60)" stroke-width="1px" opacity="0.25"></line><line x1="0" y1="48.27272727272728" x2="281.125" y2="48.27272727272728" fill="rgb(0, 0, 0)" stroke="rgb(60, 60, 60)" stroke-width="1px" opacity="0.25"></line><line x1="0" y1="32.18181818181819" x2="281.125" y2="32.18181818181819" fill="rgb(0, 0, 0)" stroke="rgb(60, 60, 60)" stroke-width="1px" opacity="0.25"></line><line x1="0" y1="16.090909090909093" x2="281.125" y2="16.090909090909093" fill="rgb(0, 0, 0)" stroke="rgb(60, 60, 60)" stroke-width="1px" opacity="0.25"></line><line x1="0" y1="0" x2="281.125" y2="0" fill="rgb(0, 0, 0)" stroke="rgb(60, 60, 60)" stroke-width="1px" opacity="0.25"></line></g></g></g><g><g><line x1="0" y1="498.8181818181818" x2="281.125" y2="498.8181818181818" fill="rgb(0, 0, 0)" stroke="rgb(153, 153, 153)" stroke-width="1.5px"></line></g></g><g><g><line x1="23.427083333333332" y1="0" x2="23.427083333333332" y2="177" fill="rgb(0, 0, 0)" stroke="rgb(153, 153, 153)" stroke-width="1.5px"></line></g></g><g><g><g><g><g><path stroke="rgb(0, 119, 187)" stroke-width="2px" d="M257.69791666666663,141.92475960471413Z" style="fill: none;" fill="none"></path></g><g><path stroke="rgb(255, 112, 67)" stroke-width="2px" d="M29.20232791666667,-11.924222045862592L29.341484791666666,0.2605960155066498L29.457448854166667,-9.074306232569995L29.61979854166667,6.1922705773283155L29.758955416666666,-2.266137354082929L30.570703854166666,9.061870823889308L30.617089479166665,6.643916942574805L30.802631979166666,15.26075286780329L31.289681041666665,5.43404955162751L31.47522354166667,15.075801454463516L31.939079791666668,26.679367365148835L33.191491666666664,26.762670554097554L33.214684479166664,22.241709720332153L33.608962291666664,18.74625612860126L33.67854072916666,16.213209241721785L33.74811916666667,15.434322755154113L34.09601135416666,18.96944995554989L34.16558979166667,22.075559159139146L34.18878260416667,22.47483552457075L34.420710729166665,33.94476875910564L34.861374166666664,35.32927553395305L35.34842322916667,25.13164476265152L35.74270104166666,33.41427774279711L35.85866510416667,24.602149540998653L36.484871041666665,39.03728502074145L36.71679916666667,18.97841626144711L36.855956041666666,26.741596461205035L37.01830572916667,34.19563640810421L37.04149854166667,37.51441123627154L37.806861354166664,31.53940429880143L37.85324697916666,43.73297332906637L38.131560729166665,45.753227684212476L38.29391041666667,48.14522725163786L38.31710322916667,39.85951537648853L38.36348885416667,26.385068120895653L38.43306729166667,23.336027375439528L38.479452916666666,21.677649861430353L38.75776666666667,20.61583979478729L38.989694791666665,44.97097815333754L39.98698572916667,37.15181997139089L40.172528229166666,47.14832520371655L40.35807072916666,29.928015868632997L40.566806041666666,39.792823315125645L40.86831260416667,31.710350652449677L40.96108385416667,18.835386194914207L41.16981916666667,38.04071778706145L41.26259041666667,34.010210174411924L41.30897604166667,24.17816950619192L41.35536166666667,42.06449863864057L41.51771135416667,41.22296327953114L41.63367541666666,40.693771642257076L41.68006104166667,49.9172946182112L41.79602510416667,58.12244382359444L41.842410729166666,54.108358705822084L41.935181979166664,46.31374000487642L42.02795322916666,43.22121228129049L42.16711010416667,46.656009229125914L42.19030291666667,45.374566730213445L42.723737604166665,60.91862882375041L42.81650885416666,53.31453788995336L43.58187166666667,42.6419401883621L43.74422135416666,12.5341836664619L43.88337822916667,46.130663259403036L44.20807760416667,48.93560454299978L44.30084885416667,73.74937389523348L44.46319854166667,59.71513732375675L44.50958416666667,39.71373711560085L44.69512666666667,45.38733754801373L45.01982604166666,46.99181595321343L45.274946979166664,56.46461887990036L45.34452541666667,41.99167235666002L45.55326072916667,63.69253287733048L45.73880322916667,48.98839514809572L45.94753854166667,36.34605257236683L45.97073135416667,36.16111235063778L46.109888229166664,60.733940609290684L46.13308104166667,69.13860114314011L46.24904510416666,59.14198567589649L46.66651572916667,66.78588401584506L46.73609416666666,60.62753418813803L46.944829479166664,62.0678975631092L47.94212041666667,66.02775448746155L48.081277291666666,56.97163704528231L48.15085572916667,43.98020387911362L48.19724135416667,40.901552211945244L48.29001260416667,48.01745131063214L48.42916947916667,56.51825706900536L48.54513354166667,45.948702890306805L48.77706166666667,66.80943592596762L48.916218541666666,55.57654983904999L49.03218260416667,62.28290194932845L49.26411072916667,46.92528982016523L50.238208854166665,39.773008642187904L50.33098010416666,46.06636741342888L50.35417291666667,54.178550722604555L50.37736572916666,46.265243184916585L50.79483635416667,52.124771119024345L51.09634291666667,73.66165050211421L51.397849479166666,60.424989832407576L52.00086260416666,70.44397719245771L52.27917635416667,56.09522334605879L52.53429729166666,83.00360340127874L52.60387572916667,86.35306126894994L52.673454166666666,78.39041619585153L53.137310416666665,87.16215734912488L53.27646729166666,79.47854635150262L53.43881697916667,70.97330237699707L53.577973854166665,70.67331789082006L53.949058854166665,73.18315777106871L54.018637291666664,83.31350759710054L54.27375822916667,70.38780534727844L54.343336666666666,64.35008412333951L54.412915104166665,68.04146637865567L54.43610791666667,71.5372755819208L55.54936291666667,74.37044829038115L55.618941354166665,78.10058436230126L55.688519791666664,67.81780460519593L55.71171260416667,55.68884588234697L56.22195447916666,55.765703089932884L56.500268229166664,56.44838503311452L56.73219635416667,71.33468085007996L56.824967604166666,70.02736032889567L57.40478791666666,70.20030541298017L57.42798072916667,80.47502423733447L57.683101666666666,86.87800520957043L57.86864416666667,77.70806096321121L58.00780104166667,73.83195487238252L58.74997104166667,69.85763350581587L58.84274229166667,76.03932105086615L59.422562604166664,73.7751212837512L59.793647604166665,88.24398553991512L59.816840416666665,92.04396614750198L60.164732604166666,81.99907339189251L60.257503854166664,79.86214496564418L60.628588854166665,81.74897823582293L60.651781666666665,77.24773774382864L61.16202354166666,73.56908082323253L61.27798760416667,72.9727453800368L61.393951666666666,84.33520078082304L61.463530104166665,78.68840677608883L61.57949416666667,73.47257241648339L61.64907260416667,72.02012480143031L61.927386354166664,64.77870786259204L62.11292885416667,74.15953622989541L62.275278541666665,60.16255523403096L62.43762822916666,80.15325927844678L62.646363541666666,71.23666929831361L62.739134791666665,73.89869214184327L62.785520416666664,71.07450283005004L62.83190604166666,93.20434844319162L62.90148447916667,90.75256720134647L63.063834166666666,74.95759147104313L63.27256947916666,79.4902251734861L63.59726885416667,83.41883332685887L63.64365447916667,85.81463201626804L63.71323291666666,76.3060527832028L63.82919697916667,76.5134967267399L63.898775416666666,64.92943037801838L63.921968229166666,72.69596298921782L64.38582447916667,86.5657158051163L64.59455979166667,95.7570304962534L64.73371666666667,97.37577210024226L64.89606635416666,90.88346337389271L64.91925916666666,78.8112171206824L65.12799447916667,90.07242709969107L65.29034416666667,83.9887863767802L65.77739322916666,77.02100592363558L65.87016447916668,86.39838208534259L66.10209260416667,77.9695695787979L66.19486385416667,99.26485318082808L66.40359916666667,79.77111540248211L66.70510572916668,72.78699293034316L66.77468416666666,65.04367097793249L66.91384104166667,71.14122493394962L66.96022666666667,59.951697601305455L67.74878229166667,55.67556880103986L67.88793916666667,64.2780666806816L68.28221697916666,71.8730526937339L68.51414510416667,76.4100337868724L68.58372354166667,75.85612061946898L68.63010916666667,84.51212762736321L69.04757979166666,75.09177059497262L69.37227916666667,68.13278383137096L69.41866479166667,57.42433929407292L69.83613541666666,69.15581921642512L69.92890666666666,69.34579546828722L70.11444916666666,76.61043429557638L70.50872697916668,70.28632810442322L70.64788385416666,86.99492010095739L71.20451135416666,75.03681849068361L71.50601791666666,73.31089433371237L71.57559635416668,80.58420887195597L71.59878916666666,87.94363660413508L71.69156041666666,82.26592825043384L71.78433166666666,78.50678671710601L71.87710291666667,83.65881376832286L72.03945260416667,71.36393297534923L72.38734479166666,74.38327712418773L73.17590041666666,79.01713959771044L73.26867166666666,66.04924340051639L73.43102135416667,71.28550508294569L73.63975666666667,75.32769842441229L73.91807041666667,69.1118358126818L74.14999854166666,75.6376579201597L74.19638416666666,72.8587992254179L74.24276979166666,78.82226667347872L74.35873385416666,78.07228151287629L74.42831229166667,71.68927102120675L74.61385479166667,95.2271581937787L74.70662604166667,107.85406155667027L75.17048229166667,104.08269491851034L75.28644635416667,96.54498049869142L75.30963916666667,86.4861544618791L75.35602479166667,70.57289537488138L75.42560322916665,76.07376770089206L75.51837447916665,87.60437026187047L75.54156729166667,97.97754102197938L75.70391697916668,77.0324065434522L75.77349541666666,74.03134626704704L75.88945947916667,74.95411659811884L76.33012291666667,82.94415255941288L76.56205104166666,78.72742709361997L76.70120791666668,68.43657763290317L76.84036479166666,100.12611117491235L76.93313604166667,94.50283650475212L77.21144979166667,102.44182232244023L77.23464260416667,108.6561971032919L77.81446291666667,92.59788488240301L78.02319822916667,80.535339760674L78.83494666666667,89.11184009242182L78.85813947916667,91.17540899819103L78.90452510416667,90.43636417332863L79.92500885416668,79.5366208333207L80.11055135416667,84.04677746492492L80.27290104166667,84.86850705568169L80.31928666666667,99.9956761550177L80.36567229166667,96.39233339409374L80.48163635416667,78.4494588604753L81.06145666666666,91.70521532483012L81.08464947916667,93.73791392112763L81.31657760416667,73.79012827987829L81.36296322916667,64.41705390218657L81.47892729166666,72.30860553245184L81.80362666666667,65.62968624649525L81.94278354166666,70.57079131776574L82.15151885416667,74.20919488620723L82.49941104166668,68.13627923308263L82.59218229166667,59.69442581510705L82.63856791666666,72.98805254217588L83.21838822916666,82.95006960125545L83.49670197916666,88.62756406632853L83.72863010416667,83.66214017707964L83.86778697916667,91.18704337804289L84.26206479166667,101.65205659878065L84.40122166666666,89.34939879857941L84.42441447916667,80.53669630262954L84.74911385416667,80.0638256151626L84.88827072916666,82.70945840787152L85.00423479166666,83.06570037431277L85.53766947916667,88.87315782335364L85.70001916666666,78.93871618005176L85.81598322916668,73.93201258378568L86.11748979166667,62.24280095348078L86.27983947916667,73.52606609232996L86.62773166666668,77.88165222864019L86.90604541666667,73.2158906957601L86.97562385416667,78.2773005307373L87.30032322916666,82.49740622231752L88.11207166666667,79.99423487386014L88.13526447916666,106.89141410990736L88.15845729166666,108.85221060972104L88.57592791666667,115.72121343692194L88.92382010416667,122.53045693011751L90.03707510416668,92.79618303813085L90.24581041666667,113.23561054642249L90.45454572916667,98.87542456926421L90.59370260416667,102.6620386882027L91.08075166666666,101.32877533694509L91.12713729166667,103.68461053353245L91.15033010416667,86.9596235755349L92.24039229166668,78.90688771787505L92.42593479166668,75.39145929088131L92.95936947916667,71.1083360320705L93.16810479166666,64.76859159615991L93.26087604166666,74.4470072165516L93.35364729166666,69.38511842017421L93.63196104166666,83.37887281546568L93.70153947916667,87.03313680240527L93.88708197916667,75.07815081923613L93.95666041666667,75.3099703948842L94.51328791666666,72.03611540454415L94.60605916666665,86.84201323131846L94.65244479166667,92.98346076582854L95.30184354166666,95.3693276968462L95.83527822916666,88.647017344537L96.18317041666666,78.17432116333622L96.36871291666668,66.36307498948348L96.48467697916666,102.76161871417125L96.60064104166666,96.96991935139427L96.73979791666667,74.82858829629465L97.11088291666667,60.69476684995804L97.52835354166668,68.80558455843898L97.55154635416666,66.23702727092984L97.71389604166667,70.89900513652807L97.78347447916667,71.8637811475463L98.34010197916666,81.99178712946797L98.40968041666667,80.3613384242539L98.57203010416667,88.14599277123818L98.64160854166666,86.63547600886774L98.66480135416667,80.2531842564437L98.71118697916667,86.74805625310721L98.73437979166665,87.58135737524411L99.31420010416667,87.00609820810551L99.52293541666666,84.87586975693893L100.07956291666667,100.09464652679299L100.26510541666667,87.15694202984533L100.58980479166667,92.48502617427263L100.61299760416667,97.60811581331717L101.00727541666666,97.35106597125558L101.67986697916668,93.09315828170581L101.72625260416666,95.48275404439633L101.95818072916667,94.70013216296594L102.35245854166668,95.7094711101908L102.46842260416666,99.03877560878585L102.97866447916667,95.87206186296329L103.16420697916666,90.13707371834172L103.41932791666667,95.6172102316487L103.46571354166666,96.83346728556239L103.62806322916667,95.93111237872822L103.76722010416667,103.68263371363608L103.92956979166667,100.18741329980362L104.06872666666666,104.24740593498252L104.13830510416668,115.23179518175036L104.53258291666666,87.79131980425173L104.81089666666666,90.90413134344416L104.88047510416666,79.64634468963365L105.41390979166665,85.1360698087198L105.46029541666667,94.94723130451011L105.59945229166667,109.32679575846956L105.69222354166668,100.24958704592422L106.06330854166667,90.62669911032262L106.45758635416666,93.34380830119885L106.92144260416666,86.37718841200484L107.33891322916666,90.20603827802677L107.38529885416668,98.82438743214811L107.43168447916666,100.21275899903942L107.50126291666666,98.12812613306622L107.57084135416667,97.09051363871313L107.96511916666667,107.06442212476729L108.22024010416666,99.88420561528116L108.54493947916667,115.06517531619016L109.28710947916666,109.66705471363989L109.84373697916668,104.91234289676525L109.93650822916668,118.82400583016675L109.98289385416666,115.52002258878719L110.12205072916667,101.03713777368691L110.19162916666667,86.70951189006445L110.23801479166666,83.42678378032326L110.44675010416667,96.52679544907994L110.60909979166667,79.60120196149784L110.91060635416667,74.75855158516842L111.09614885416667,88.19211131997535L111.39765541666667,100.64821349997081L111.44404104166667,94.97253592968327L111.51361947916668,77.95188925578582L111.88470447916667,69.11782059293348L112.00066854166667,61.319502447645746L112.04705416666667,79.47097427631564L112.27898229166667,71.32945172832049L112.37175354166666,66.82397684254542L113.04434510416667,81.77886625245547L113.16030916666666,89.936230246191L113.32265885416666,83.17070587676291L114.34314260416667,76.65125192849024L114.52868510416667,94.3528873736913L114.69103479166667,106.90105307518247L114.78380604166667,101.30549785906986L115.03892697916667,100.6100787919023L115.17808385416666,93.87000804063322L115.31724072916667,99.72250323191726L115.82748260416668,102.63810440608042L116.08260354166667,97.23013367858255L116.19856760416667,85.52574042443467L116.40730291666667,90.17021664901449L116.43049572916668,89.75922213584869L116.70880947916667,101.47267680845347L116.96393041666667,109.82775364588528L117.03350885416666,115.95520127089414L118.35549916666666,106.61961783007466L118.47146322916667,100.20843118721385L118.49465604166667,99.4337383276958L118.72658416666667,91.5324015326615L120.41965947916667,77.66164867217147L120.67478041666666,97.11870190527378L120.69797322916666,106.46396773906714L120.74435885416668,105.55112456211927L120.79074447916666,105.97481251858814L120.86032291666666,102.4927921187523L120.88351572916666,98.34575010867594L121.46333604166666,105.17038161150352L121.57930010416666,87.13126013089803L121.64887854166666,90.55877247480126L121.83442104166667,89.95348858253703L122.08954197916667,116.6141868773276L122.29827729166666,102.08179122629446L122.36785572916666,103.87118867454173L122.39104854166666,109.73137908718245L122.73894072916666,104.16635347548066L123.11002572916668,114.80643814508062L123.24918260416666,89.22014384851855L123.34195385416666,79.90304744636254L123.55068916666667,73.58403857856858L123.59707479166667,73.03529419650195L123.80581010416665,99.75833603883068L123.89858135416667,98.18391487846975L124.15370229166666,86.12090461056466L124.75671541666667,93.50323471080794L124.96545072916668,90.8263465660089L125.31334291666667,86.08585504764865L125.47569260416665,104.00891423486578L125.61484947916666,106.23390009343191L125.70762072916666,99.06236043070403L125.73081354166666,102.52071731710497L126.17147697916666,102.71260697606733L126.24105541666667,100.16402207970555L127.07599666666667,114.81933859627861L127.21515354166667,106.12389110221406L127.56304572916666,88.56974745318747L127.60943135416667,93.10046469394727L128.00370916666665,103.44907616022934L128.02690197916667,109.52731534723846L128.46756541666667,119.37481760855613L128.49075822916666,129.9308530756761L128.56033666666667,120.61533113695398L128.76907197916668,113.88257051389293L129.02419291666666,111.66797129115712L129.60401322916667,103.55443191409859L129.67359166666665,94.73382651518057L129.92871260416666,84.9564071789725L129.99829104166668,97.52926429861662L130.04467666666667,118.84371145004178L130.09106229166667,131.50743064976584L130.36937604166667,118.67319569732135L130.76365385416668,109.19460386969787L131.25070291666665,92.20298113840252L131.41305260416667,113.83260730320308L131.59859510416666,108.95125644291257L131.69136635416666,98.08977457053713L131.85371604166667,104.29671239302364L131.87690885416666,89.14221894193986L131.90010166666667,79.43646453832622L132.13202979166667,120.19437189815555L132.73504291666666,128.27367734643505L132.85100697916667,126.50447088429037L133.22209197916666,115.69627952653481L133.47721291666667,103.98600550611528L133.56998416666667,121.41487524580788L133.59317697916669,120.71729270674427L133.77871947916668,106.49860835109736L133.91787635416665,106.50800817250142L133.98745479166666,123.64598782031553L134.19619010416667,108.25570265534623L134.28896135416667,106.2882087885868L134.45131104166666,100.2546224943879L134.47450385416667,99.96323825160434L134.61366072916667,93.03672500829123L134.75281760416667,93.19040672572227L134.79920322916666,101.11164983321832L134.86878166666665,98.08073515583479L135.68053010416665,105.00470656036431L135.95884385416667,88.48827683094957L136.39950729166668,100.74633725058057L136.44589291666665,95.8902295520529L136.93294197916669,107.7865310029381L137.39679822916668,97.80629866490652L137.95342572916667,95.73783852234145L138.02300416666665,108.7636455933187L138.32451072916666,102.69085052793278L138.5100532291667,118.89417895134775L138.71878854166667,111.17237197541182L138.78836697916668,103.14082719359226L138.83475260416665,100.49983001200049L138.85794541666667,106.26716845952626L139.87842916666668,96.73084044616587L140.01758604166668,111.81622234353847L140.08716447916666,123.91523701552029L140.24951416666667,121.94578416598829L140.55102072916668,98.14768858930356L140.59740635416668,103.19645950035058L140.62059916666666,104.38075259230017L140.78294885416668,117.9688435120562L141.20041947916667,110.9629352187838L141.73385416666667,96.43319124879072L141.8498182291667,110.61023407411463L142.31367447916665,106.78492484610231L142.36006010416668,103.41588670087424L142.49921697916665,95.19973634958174L143.10223010416667,94.34551278031905L143.21819416666668,100.36401779003981L143.61247197916668,100.60415931183017L144.02994260416665,89.50291195783674L144.21548510416665,105.7916949619002L144.74891979166665,113.69512334477153L144.84169104166668,103.33621477057913L144.93446229166665,109.47192400838799L144.95765510416666,111.82247845454896L145.56066822916668,115.91246456740265L146.09410291666666,115.96259187742663L146.7666944791667,117.54660135503823L147.02181541666667,117.36007834453926L147.39290041666666,126.75520917435936L147.71759979166666,124.00823803124914L147.74079260416667,112.34192006650783L148.20464885416666,96.61438984951937L148.76127635416665,108.30357362362318L149.13236135416665,130.168679194482L149.57302479166668,128.1217734513039L149.64260322916667,106.43445010982263L149.75856729166668,118.06609754780499L150.61670135416668,114.37227543875048L150.7790510416667,115.86634899460684L150.87182229166666,107.53531870739972L151.01097916666666,111.40502918442297L151.15013604166668,118.08806735140752L151.26610010416667,122.07127503941783L151.33567854166668,107.56438242754805L151.38206416666668,88.38666981186444L151.93869166666667,88.07982910491432L152.12423416666667,85.51144116412047L152.51851197916665,94.2142450973093L152.63447604166666,126.4320760001469L152.68086166666666,132.96311633872452L152.95917541666668,139.5377373846889L153.00556104166665,127.70310202553989L153.14471791666668,105.93331224293405L153.42303166666667,113.23757551381794L153.53899572916666,97.77075867055105L153.77092385416668,109.46726144345283L154.00285197916668,114.23831376970276L154.65225072916667,130.26096450249992L154.69863635416667,129.27052898004223L154.79140760416666,117.14611088944577L155.13929979166664,112.6325427710165L156.09020510416667,129.78875390080236L156.15978354166666,122.52284881486884L156.57725416666668,112.99071047910684L156.99472479166667,107.06662047358805L157.38900260416665,114.56231642255837L157.4585810416667,97.83731869209153L157.57454510416667,88.57505738346782L157.69050916666666,105.08289002922405L158.10797979166665,97.22410840718287L158.13117260416666,96.06599691575856L158.52545041666667,101.17940902370053L158.59502885416666,114.29464978100833L158.75737854166667,109.43978314364047L159.38358447916664,105.04030289455166L159.42997010416667,82.80829525657298L159.59231979166668,111.58763939648641L160.00979041666668,126.20023114876727L160.21852572916666,112.040192691502L160.42726104166667,119.54684829756278L160.65918916666666,99.61930451853233L160.91431010416667,95.78261543983479L161.00708135416667,97.05789275300333L161.0302741666667,91.80475566855895L161.47093760416666,108.4062468587215L161.58690166666668,89.79254398870147L161.63328729166665,95.4861886107946L161.72605854166667,113.0600109514555L161.93479385416666,101.0637240224891L162.35226447916665,123.33169255447356L162.81612072916667,113.4252538527747L162.93208479166668,99.90760724275059L163.14082010416666,97.6967942095975L163.2799769791667,103.12365867630444L163.30316979166668,102.06215893425394L163.39594104166665,111.25193179909556L163.4655194791667,124.90186209348434L163.97576135416668,108.54417303667479L164.39323197916667,126.96979744549569L164.48600322916664,130.5023602704979L164.60196729166665,107.97883863377866L164.97305229166665,111.26794768377394L165.01943791666667,105.66735964419986L165.25136604166667,119.36156337230207L165.39052291666667,104.24964343442528L165.43690854166667,103.39135703621892L165.57606541666667,125.30982948052039L165.62245104166666,138.54107776976645L165.66883666666666,137.74544577851475L165.9471504166667,151.20622486179545L165.99353604166666,160.8168849692346L166.03992166666666,150.97746119283332L166.57335635416666,117.36935982227853L166.78209166666667,137.64183302593548L166.85167010416666,124.86562321976936L167.22275510416668,117.09127584281684L167.47787604166666,136.44530047883458L167.52426166666666,147.23655985106586L167.6634185416667,131.44195741166047L167.96492510416667,101.1599814649295L168.08088916666668,121.24359553789327L168.24323885416666,119.3377067279206L168.3823957291667,121.41824792702224L168.68390229166667,127.02171999089907L169.2869154166667,110.3753018642571L169.82035010416666,118.88455695085187L169.91312135416666,127.04857599512943L169.93631416666665,147.07370889053473L170.09866385416666,130.26777935598275L170.49294166666667,130.90790556469494L170.74806260416668,124.05420267830563L171.0031835416667,119.6719740384021L171.16553322916664,116.98965195788682L171.30469010416667,120.77126323727647L171.86131760416666,114.02977759568617L173.13692229166668,117.32513584452104L173.22969354166665,112.88780230139032L173.53120010416666,120.15972654407551L173.87909229166667,136.98384598614876L174.06463479166666,123.20844987573577L174.08782760416668,111.09495698265913L174.18059885416667,112.37367125824343L174.41252697916667,126.22685570349898L174.64445510416667,117.54717541994648L174.66764791666665,116.11581787514795L174.69084072916664,125.86689742452947L174.8763832291667,118.42883242721857L175.34023947916666,111.23685385807566L175.89686697916665,105.52244068398602L176.05921666666666,112.13295751341897L176.12879510416667,102.35718782425789L176.36072322916667,100.09779262785996L176.56945854166665,127.03416288695212L176.6390369791667,113.36637217175755L176.87096510416666,126.46476681779174L176.98692916666667,122.68875735740974L177.82187041666666,121.3557889825389L178.03060572916667,123.06530194731803L178.07699135416667,126.98241861179457L178.16976260416666,122.69401007709979L178.30891947916666,121.8553486954076L178.37849791666665,123.68633543794765L178.54084760416666,108.42775578325421L178.72639010416665,112.38525274085981L178.79596854166667,109.69159087569486L178.98151104166666,119.0390442692912L179.07428229166666,114.52995454896816L179.16705354166666,122.61181317238515L179.70048822916667,116.43549076597989L179.79325947916666,127.87624515982762L179.95560916666665,123.59080218012508L180.04838041666667,114.39948114161551L180.30350135416666,115.23719213900426L180.58181510416668,131.5629552231442L180.95290010416667,121.62565169057154L181.53272041666665,128.2695378122167L181.88061260416666,122.25515440286179L182.20531197916665,118.41046166582046L182.39085447916665,126.6707077773021L182.57639697916665,120.75571980187931L182.71555385416667,112.51838618799016L182.73874666666666,107.32420954981916L183.34175979166668,125.67958737539928L183.66645916666667,132.95003758148954L184.24627947916667,124.43853693931896L184.64055729166665,123.29406220209904L184.91887104166668,115.09101064390234L184.98844947916666,110.0234221378506L185.12760635416666,118.7882870140669L185.54507697916665,114.01359013391065L185.59146260416665,109.22970226482796L186.00893322916667,104.44015248571675L186.10170447916664,103.0212484183654L186.58875354166668,108.70177992371099L186.68152479166667,102.95291901179937L186.8438744791667,99.36025106583762L187.14538104166667,105.29486455940224L187.28453791666666,106.57460585001014L187.60923729166666,104.0465101558468L187.88755104166665,92.54423403817697L188.23544322916666,112.84535846323377L188.4209857291667,114.45904502289763L188.44417854166667,114.41476174440706L188.9544204166667,129.46147412317123L189.04719166666666,118.74873596149595L189.37189104166666,126.60993868161171L189.65020479166668,131.96466426986905L189.67339760416667,154.02695023705905L189.83574729166668,127.79784149288794L190.16044666666664,131.1867208231342L190.29960354166667,125.54370807537916L190.46195322916665,137.0201884682744L190.50833885416665,143.9639721563375L190.7170741666667,137.12154978383717L190.76345979166666,131.33079362596192L190.78665260416668,130.57120206114175L191.22731604166665,147.67851627508173L191.29689447916667,128.47743419464774L191.50562979166668,123.44689461546582L191.8071363541667,112.27243239583308L192.36376385416668,107.42640041650378L192.73484885416667,111.7097622441983L192.98996979166665,109.99037206154027L193.40744041666667,113.30489897933361L193.63936854166667,113.13228312095423L193.66256135416666,102.8876671165578L193.80171822916665,123.22426127235386L193.96406791666666,119.73582587851354L194.0568391666667,110.79253936699624L194.08003197916668,96.37367557276787L194.10322479166666,96.95760267143056L194.61346666666668,112.5018322493871L194.63665947916667,121.90002728098435L194.72943072916667,127.4156279685995L194.77581635416666,119.77625368157251L194.98455166666668,139.03248111297404L195.07732291666665,128.1827645078501L195.74991447916665,128.92922595158058L195.77310729166666,125.15294454811013L195.98184260416667,121.35913351963754L196.05142104166666,117.95782630318877L196.21377072916667,120.93078077891697L196.44569885416666,103.6588104029414L196.46889166666665,113.8586049451562L196.51527729166668,108.92879822099997L196.63124135416666,121.71890689280505L196.77039822916666,115.66562397632582L196.8631694791667,126.29404317297141L196.90955510416669,118.54858187357598L197.28064010416668,126.90971102211697L197.41979697916668,122.69000143182924L197.44298979166666,124.14428248085713L197.62853229166666,125.42015505425472L198.06919572916667,121.70737451559617L198.46347354166667,122.52071515902031L199.06648666666666,111.99242787470905L199.59992135416667,132.66094814106302L199.90142791666668,137.95411678336384L199.97100635416666,135.34366459738428L200.68998354166666,139.63572312810385L200.71317635416665,138.61409892147344L201.08426135416667,124.0228223261839L201.10745416666668,113.73566834077869L201.33938229166668,121.28623091058405L201.40896072916667,137.37486271405285L201.45534635416666,138.54866599157975L201.71046729166667,147.32320081010232L201.84962416666667,156.99787084783335L201.91920260416666,133.04383338461002L202.01197385416668,125.49437032107144L202.42944447916665,113.69061258792871L202.45263729166666,96.90484197625246L202.54540854166666,120.88343100362258L202.61498697916667,149.0529921459857L202.66137260416664,144.81125071528135L202.98607197916667,163.9535648517762L203.07884322916667,152.31901335620066L203.33396416666665,137.51843112107568L203.4035426041667,144.24811242242347L203.86739885416665,151.91714214217478L204.05294135416665,135.13272137872195L204.28486947916667,129.03901753737168L204.30806229166666,106.7274588872357L204.56318322916667,142.36892411829666L205.09661791666664,133.22500090541513L205.21258197916666,116.42195205914042L205.60685979166666,110.67182219207159L206.62734354166668,113.509256686936L206.65053635416666,112.35340564401972L206.7433076041667,116.51977383574157L206.83607885416666,132.09445277467825L207.25354947916668,116.65276347277923L207.39270635416665,114.09207027904662L208.38999729166667,114.63386293935626L208.57553979166667,130.34319410083856L208.76108229166667,132.86797652187124L208.78427510416665,114.10786102520544L209.1785529166667,107.54272287400109L209.48005947916667,99.21603386533639L209.57283072916667,105.3717207053879L209.82795166666665,121.1107874530845L210.10626541666667,121.97165636800219L210.17584385416666,118.88862986261593L210.22222947916666,105.92903758387368L210.31500072916666,105.19223242581246L210.50054322916665,134.07935201763237L211.89211197916666,140.99478819588654L212.03126885416668,123.39118409417875L212.05446166666667,116.58565816602427L212.44873947916668,107.70178330515434L212.61108916666666,113.11329909797183L213.14452385416666,118.35539192882038L213.2372951041667,119.596628739723L213.49241604166667,129.25314561763525L213.56199447916666,134.00530589419625L213.95627229166666,113.27049074865377L214.09542916666666,124.11156542586573L214.39693572916667,116.74730306666557L214.86079197916666,127.32011992704653L215.06952729166667,134.7980993166239L215.44061229166667,134.47047987917003L215.48699791666667,138.55725095961765L215.69573322916668,121.5785514036292L215.9044685416667,153.06578200683927L216.09001104166668,133.96668505770796L216.55386729166665,130.87703591754826L216.60025291666668,126.24260740923808L216.66983135416666,150.04783419041593L216.71621697916666,156.0481026194076L216.85537385416666,128.75031029656463L217.13368760416668,129.29147035762628L217.15688041666667,130.71576259121818L217.31923010416668,139.87244267325008L217.38880854166666,125.17683578494702L217.50477260416667,118.8752230224819L217.6671222916667,135.99730039507648L217.71350791666666,132.76710776501108L218.89634135416668,117.30846439932978L219.15146229166666,135.94002810526285L219.22104072916667,123.48657302937309L219.33700479166666,132.55274842744274L219.70808979166665,120.91431417043495L219.80086104166668,104.89984541033091L219.82405385416666,110.80790651377669L219.87043947916666,117.41081632370454L220.1023676041667,115.07592843724473L220.19513885416666,121.45810380972787L220.28791010416668,126.4091272838392L220.49664541666667,116.16170381503895L220.51983822916668,110.59623091273606L220.63580229166666,134.6728500200316L220.72857354166666,133.8142274098128L220.75176635416665,133.29835408948674L221.09965854166666,143.5235435649758L221.81863572916666,142.17249045228453L222.09694947916668,126.06003897407399L222.25929916666666,126.16404615055767L222.37526322916668,118.06822499812935L222.69996260416664,128.33278874754592L222.90869791666668,140.66367818127787L223.2565901041667,158.49048901325898L223.51171104166667,145.73317197018906L223.67406072916665,143.95454405957705L223.69725354166667,146.53437568889785L223.90598885416665,140.4260430463954L224.78731572916666,129.2907868635483L224.85689416666668,128.69071808148567L224.90327979166668,145.95563124395528L224.97285822916666,158.02396815177983L224.99605104166665,159.71778554305658L225.08882229166667,148.41762873716652L225.83099229166666,142.63760616186673L226.15569166666666,144.80416070972652L226.7818976041667,124.37943877258218L226.92105447916666,116.99906877835312L227.01382572916668,133.91484744210507L227.43129635416665,148.01741023250824L227.54726041666666,135.4702277168753L227.89515260416667,109.07229748550522L227.96473104166665,113.31909960780264L228.03430947916667,120.31796129888343L228.52135854166664,137.57989677722156L228.77647947916668,125.1026300746115L229.0779860416667,128.8123494459122L229.10117885416668,133.63566863971528L229.33310697916667,131.95960233905822L229.40268541666666,140.32353618648267L229.49545666666666,126.1931720603448L229.88973447916666,126.08152164718436L229.9361201041667,126.75812458055137L230.00569854166667,138.49559886110163L230.49274760416668,143.37222143269435L230.53913322916668,148.18155269992647L230.6550972916667,160.05470840329218L230.91021822916667,132.08292124170453L231.09576072916667,144.69837640224927L231.18853197916667,133.51145033808695L231.58280979166668,124.98731190318063L231.72196666666667,158.21220158116174L231.95389479166667,137.74715841485028L232.00028041666667,129.857616920581L232.13943729166667,133.76775916990448L232.25540135416668,138.40711088524347L232.37136541666666,128.75556198846587L232.44094385416668,128.0809775184524L232.78883604166668,115.78077381686866L232.81202885416667,100.1333872471081L233.43823479166664,126.8773401430092L233.62377729166664,128.1605065777045L233.85570541666667,130.98558450859002L234.11082635416665,143.3223702974392L234.59787541666665,144.54397947105494L234.99215322916666,138.78894684511963L235.01534604166665,131.7232682313615L235.7575160416667,160.87673278107988L235.78070885416668,170.8025658249867L235.91986572916667,147.04295466444776L237.12589197916665,139.5702859461962L237.17227760416668,145.82727323286773L237.3346272916667,151.30648245889677L237.40420572916668,128.10012337037978L237.56655541666666,131.22653090366433L238.19276135416666,132.56107258660998L238.67981041666667,118.92671562893688L238.9117385416667,136.9830658014788L239.2828235416667,133.57518389949968L239.32920916666666,140.87279935448143L239.37559479166666,155.73400565139625L239.49155885416667,135.3941170333049L240.23372885416666,135.74453525294194L240.34969291666667,147.31134253959362L240.60481385416665,144.05749373675772L240.62800666666666,128.63942164044772L240.65119947916665,127.71356631434676L240.72077791666666,120.13480441152177L241.09186291666666,120.5300830170081L241.71806885416666,133.01494964041618L241.78764729166667,124.14460987657924L242.2515035416667,124.85161092439395L242.39066041666666,124.39798833031553L242.41385322916665,116.43820470251285L243.01686635416667,135.7272864051592L243.17921604166668,130.5494179690277L243.3415657291667,138.77923047113603L244.10692854166666,124.87012263604186L244.17650697916665,115.26923752760344L244.61717041666668,118.66151588303939L244.64036322916667,127.91505611407433L244.84909854166665,136.0866916662696L245.01144822916666,131.83250545885713L245.08102666666667,131.32134859003375L245.24337635416668,135.04512814316706L245.31295479166667,149.83779847403497L245.75361822916665,151.32621840215896L245.82319666666666,143.55837586107523L246.07831760416667,139.39326817578043L246.33343854166668,131.4722379828831L246.56536666666668,143.56108285209672L246.61175229166665,131.21649680431997L246.63494510416666,123.21764263936579L246.70452354166667,116.66094044756653L247.26115104166666,137.24736188705913L247.37711510416668,134.2969286373624L247.40030791666666,117.95975057452944L247.49307916666666,123.42134158062407L247.93374260416667,145.14094408356178L247.95693541666668,151.3552214405934L248.16567072916666,151.75526584886418L248.35121322916666,139.14742490959821L248.62952697916668,124.37091857435448L249.55723947916667,119.75059534238878L249.76597479166665,127.44440391952239L249.78916760416666,138.37908887659358L249.92832447916666,134.04073721156516L249.97471010416666,132.74285372053816L250.18344541666667,143.05139737969503L250.99519385416667,133.42921135539598L251.64459260416666,130.9797321660208L251.71417104166665,136.00888283432488L251.7837494791667,149.92153377163984L251.99248479166667,152.99170096089318L252.6418835416667,151.5179116731712L253.19851104166668,153.80117981251868L253.43043916666667,138.24401306606683L254.70604385416667,134.43688725692078L254.84520072916666,136.04536890977215L254.9379719791667,145.98937226638438L255.00755041666667,148.04165622448795L255.26267135416666,131.1354224234357L255.63375635416668,134.0757842879126L255.68014197916668,126.36287433140345L255.7961060416667,136.39930002719785L256.5150832291667,136.95833403909043L256.6310472916667,115.51007490021652L256.65424010416666,114.86022716613756L256.7006257291667,112.76661348363139L256.9789394791667,130.5111041763827L257.02532510416665,142.59439395391644L257.30363885416665,138.15206449235612L257.5355669791667,128.69452113837355L257.69791666666663,119.4016398431138" style="fill: none;" fill="none"></path></g></g></g></g><g opacity="0.2"><g><g><g><path stroke="rgb(0, 119, 187)" stroke-width="2px" d="M257.69791666666663,141.92475960471413Z" style="fill: none;" fill="none"></path></g><g><path stroke="rgb(255, 112, 67)" stroke-width="2px" d="M28.738471666666666,-4.343325181440861L28.854435729166667,2.895325053821921L29.20232791666667,4.964172883467228L29.341484791666666,18.535966873168945L29.457448854166667,-23.075806357643813L29.61979854166667,29.091298536820858L29.758955416666666,-14.953470923683852L30.570703854166666,26.053659439086914L30.617089479166665,3.017014763572007L30.802631979166666,28.185945510864258L31.289681041666665,-9.305963516235352L31.47522354166667,29.538404638117015L31.939079791666668,44.084698416969985L33.191491666666664,26.887625260786564L33.214684479166664,15.4602709683505L33.608962291666664,13.503076900135397L33.67854072916666,12.413639415394186L33.74811916666667,14.265993118286133L34.09601135416666,24.272140502929688L34.16558979166667,26.734722831032485L34.18878260416667,23.073750062422306L34.420710729166665,51.14966843344949L34.861374166666664,37.40603568337181L35.34842322916667,9.835198662497788L35.74270104166666,45.838227185336024L35.85866510416667,11.383957255970358L36.484871041666665,60.68998822298917L36.71679916666667,-11.109886863014907L36.855956041666666,38.38636675747958L37.01830572916667,45.376696326515884L37.04149854166667,42.49257347800514L37.806861354166664,22.576893893155187L37.85324697916666,62.0233268737793L38.131560729166665,48.783609216863454L38.29391041666667,51.733226602727726L38.31710322916667,27.430947563864976L38.36348885416667,6.17339723760432L38.43306729166667,18.762466257268727L38.479452916666666,19.190083590420812L38.75776666666667,19.02312469482422L38.989694791666665,81.50368569113992L39.98698572916667,25.42308269847524L40.172528229166666,62.14308305220172L40.35807072916666,4.097551866011173L40.566806041666666,54.59003448486328L40.86831260416667,19.58664165843618L40.96108385416667,-0.4770604913884995L41.16981916666667,66.84871517528187L41.26259041666667,27.964448755437672L41.30897604166667,9.430108503861874L41.35536166666667,68.89399233731356L41.51771135416667,39.96066024086693L41.63367541666666,39.899984186345876L41.68006104166667,63.75257908214222L41.79602510416667,70.43016763166949L41.842410729166666,48.08723102916372L41.935181979166664,34.62181195345792L42.02795322916666,38.582420695911765L42.16711010416667,51.808204650878906L42.19030291666667,43.45240298184481L42.723737604166665,84.23472196405585L42.81650885416666,41.90840148925781L43.58187166666667,26.63304363597524L43.74422135416666,-32.6274511163885L43.88337822916667,96.52538264881481L44.20807760416667,53.14301646839489L44.30084885416667,110.97002792358398L44.46319854166667,38.66378246654165L44.50958416666667,9.711636803366929L44.69512666666667,53.897738196633085L45.01982604166666,49.39853356101297L45.274946979166664,70.67382326993075L45.34452541666667,20.282252571799546L45.55326072916667,96.2438236583363L45.73880322916667,26.932188554243595L45.94753854166667,17.382538708773524L45.97073135416667,35.883702018044204L46.109888229166664,97.59318299727006L46.13308104166667,81.74559194391425L46.24904510416666,44.14706247503108L46.66651572916667,78.25173152576794L46.73609416666666,51.39000944657758L46.944829479166664,64.22844262556598L47.94212041666667,71.96753987399015L48.081277291666666,43.3874608820135L48.15085572916667,24.49305412986061L48.19724135416667,36.28357471119273L48.29001260416667,58.69129995866254L48.42916947916667,69.26946570656516L48.54513354166667,30.09437162225896L48.77706166666667,98.1005354794589L48.916218541666666,38.727220708673656L49.03218260416667,72.3424301147461L49.26411072916667,23.888871626420467L50.238208854166665,29.04458687522194L50.33098010416666,55.50640557029031L50.35417291666667,66.34682568636808L50.37736572916666,34.39528187838468L50.79483635416667,60.91406302018598L51.09634291666667,105.96696957674894L51.397849479166666,40.56999882784757L52.00086260416666,85.47245823253284L52.27917635416667,34.57209257646039L52.53429729166666,123.36617348410867L52.60387572916667,91.37724807045676L52.673454166666666,66.44644858620383L53.137310416666665,100.31976907903498L53.27646729166666,67.95312985506925L53.43881697916667,58.21543641523883L53.577973854166665,70.2233411615545L53.949058854166665,76.94791759144177L54.018637291666664,98.50903233614835L54.27375822916667,50.99925197254528L54.343336666666666,55.29350228743121L54.412915104166665,73.57853976162997L54.43610791666667,76.78098938681863L55.54936291666667,78.62020735307172L55.618941354166665,83.69578847018155L55.688519791666664,52.3936349695379L55.71171260416667,37.4954077980735L56.22195447916666,55.88098890131171L56.500268229166664,57.47240794788708L56.73219635416667,93.66412457552823L56.824967604166666,68.06637954711914L57.40478791666666,70.45972303910688L57.42798072916667,95.88710247386585L57.683101666666666,96.48247666792436L57.86864416666667,63.953144593672306L58.00780104166667,68.01779573613946L58.74997104166667,63.89615145596591L58.84274229166667,85.31185236844149L59.422562604166664,70.37882163307883L59.793647604166665,109.94728192416105L59.816840416666665,97.74393705888228L60.164732604166666,66.93173425847833L60.257503854166664,76.65675232627176L60.628588854166665,84.5792281410911L60.651781666666665,70.49587700583719L61.16202354166666,68.05109544233844L61.27798760416667,72.07824221524325L61.393951666666666,101.3788838820024L61.463530104166665,70.21821576898749L61.57949416666667,65.6488208770752L61.64907260416667,69.84145337885077L61.927386354166664,53.9165824543346L62.11292885416667,88.2307787808505L62.275278541666665,39.167083740234375L62.43762822916666,110.13931534507059L62.646363541666666,57.8617843281139L62.739134791666665,77.89172640713778L62.785520416666664,66.83821886236016L62.83190604166666,126.39911686290395L62.90148447916667,87.07489533857867L63.063834166666666,51.26512787558816L63.27256947916666,86.28917572715066L63.59726885416667,89.31174555691805L63.64365447916667,89.40833005038175L63.71323291666666,62.04318393360485L63.82919697916667,76.82466264204547L63.898775416666666,47.55333085493609L63.921968229166666,84.34576190601696L64.38582447916667,107.37034502896395L64.59455979166667,109.54400253295898L64.73371666666667,99.80388450622559L64.89606635416666,81.14500028436835L64.91925916666666,60.702847740866915L65.12799447916667,106.96424206820402L65.29034416666667,74.86332529241388L65.77739322916666,66.56933524391867L65.87016447916668,100.46444632790305L66.10209260416667,65.32635081898083L66.19486385416667,131.2077785838734L66.40359916666667,50.53050873496316L66.70510572916668,62.31080922213468L66.77468416666666,53.428688049316406L66.91384104166667,80.2875558679754L66.96022666666667,43.1674066023393L67.74878229166667,49.261375600641415L67.88793916666667,77.18181350014426L68.28221697916666,83.26553171331231L68.51414510416667,83.21550542658026L68.58372354166667,75.02525086836383L68.63010916666667,97.49613813920455L69.04757979166666,60.96123504638672L69.37227916666667,57.69430368596856L69.41866479166667,41.36167248812589L69.83613541666666,86.7530390999534L69.92890666666666,69.63075984608044L70.11444916666666,87.50739253651012L70.50872697916668,60.800168817693546L70.64788385416666,112.05780809575862L71.20451135416666,57.09966607527301L71.50601791666666,70.7220080982555L71.57559635416668,91.49418067932129L71.59878916666666,98.98277820240368L71.69156041666666,73.74936571988192L71.78433166666666,72.86807441711426L71.87710291666667,91.38685434514827L72.03945260416667,52.92161178588867L72.38734479166666,78.9122933474454L73.17590041666666,85.9679333079945L73.26867166666666,46.59739910472524L73.43102135416667,79.13989760658957L73.63975666666667,81.39098843661222L73.91807041666667,59.788041895086124L74.14999854166666,85.42639108137652L74.19638416666666,68.69051118330523L74.24276979166666,87.76746784556995L74.35873385416666,76.94730377197266L74.42831229166667,62.11475528370251L74.61385479166667,130.53398895263672L74.70662604166667,126.79441660100764L75.17048229166667,98.42564496127042L75.28644635416667,85.23840886896308L75.30963916666667,71.39791540666059L75.35602479166667,46.703006744384766L75.42560322916665,84.32507618990812L75.51837447916665,104.90027410333806L75.54156729166667,113.53729716214266L75.70391697916668,45.61470482566139L75.77349541666666,69.52975585243918L75.88945947916667,76.33827209472656L76.33012291666667,94.92920650135387L76.56205104166666,72.40233889493075L76.70120791666668,53.00030344182794L76.84036479166666,147.66041148792613L76.93313604166667,86.06792449951172L77.21144979166667,114.35030104897238L77.23464260416667,117.97775927456942L77.81446291666667,68.51041655106977L78.02319822916667,62.441522078080624L78.83494666666667,101.9765905900435L78.85813947916667,94.27076235684481L78.90452510416667,89.32779693603516L79.92500885416668,63.18700582330878L80.11055135416667,90.81201241233133L80.27290104166667,86.10110144181684L80.31928666666667,122.68642980402166L80.36567229166667,90.98731925270774L80.48163635416667,51.53514706004749L81.06145666666666,111.5888500213623L81.08464947916667,96.78696181557395L81.31657760416667,43.86844981800425L81.36296322916667,50.35744233564898L81.47892729166666,84.1459329778498L81.80362666666667,55.61130731756036L81.94278354166666,77.98244892467152L82.15151885416667,79.66680023886941L82.49941104166668,59.02690575339578L82.59218229166667,47.03164568814364L82.63856791666666,92.92849263277921L83.21838822916666,97.89309518987483L83.49670197916666,97.1438057639382L83.72863010416667,76.21400434320624L83.86778697916667,102.47439817948775L84.26206479166667,117.34957642988725L84.40122166666666,70.8954120982777L84.42441447916667,67.31764255870472L84.74911385416667,79.35451958396219L84.88827072916666,86.67790759693493L85.00423479166666,83.60006332397461L85.53766947916667,97.58434399691495L85.70001916666666,64.03705371509899L85.81598322916668,66.42195718938653L86.11748979166667,44.70898350802335L86.27983947916667,90.45096380060369L86.62773166666668,84.41503143310547L86.90604541666667,66.21724839644L86.97562385416667,85.86941528320312L87.30032322916666,88.82756475968795L88.11207166666667,76.2394778511741L88.13526447916666,147.23718296397817L88.15845729166666,111.79340535944158L88.57592791666667,126.02471767772329L88.92382010416667,132.7443221699108L90.03707510416668,48.194772200150936L90.24581041666667,143.8947518088601L90.45454572916667,77.33514560352673L90.59370260416667,108.34195986661044L91.08075166666666,99.3288803100586L91.12713729166667,107.21836332841353L91.15033010416667,61.8721431385387L92.24039229166668,66.82778393138538L92.42593479166668,70.11831665039062L92.95936947916667,64.6836511438543L93.16810479166666,55.25897494229403L93.26087604166666,88.96463064713912L93.35364729166666,61.792285225608126L93.63196104166666,104.36950440840288L93.70153947916667,92.51453278281473L93.88708197916667,57.14567184448242L93.95666041666667,75.65769975835626L94.51328791666666,67.1253329190341L94.60605916666665,109.05085997147994L94.65244479166667,102.19563206759366L95.30184354166666,98.94812809337269L95.83527822916666,78.56355181607333L96.18317041666666,62.46527689153497L96.36871291666668,48.646205728704274L96.48467697916666,157.35943430120295L96.60064104166666,88.28237030722879L96.73979791666667,41.61659171364525L97.11088291666667,39.49403468045321L97.52835354166668,80.97181112116034L97.55154635416666,62.3841913396662L97.71389604166667,77.89197193492542L97.78347447916667,73.3109451640736L98.34010197916666,97.18379610235041L98.40968041666667,77.91566536643289L98.57203010416667,99.82297429171476L98.64160854166666,84.36970086531207L98.66480135416667,70.67974662780762L98.71118697916667,96.49036424810237L98.73437979166665,88.83130905844949L99.31420010416667,86.14320945739746L99.52293541666666,81.6805270801891L100.07956291666667,122.92281168157405L100.26510541666667,67.75038528442383L100.58980479166667,100.47715239091353L100.61299760416667,105.29275027188388L101.00727541666666,96.96549120816317L101.67986697916668,86.70629674738105L101.72625260416666,99.06714768843217L101.95818072916667,93.52619934082031L102.35245854166668,97.22347953102805L102.46842260416666,104.03273235667835L102.97866447916667,91.1219912442294L103.16420697916666,81.53459150140937L103.41932791666667,103.8374150016091L103.46571354166666,98.65785286643289L103.62806322916667,94.57758001847701L103.76722010416667,115.30991571599787L103.92956979166667,94.94458267905496L104.06872666666666,110.3373948877508L104.13830510416668,131.70837905190206L104.53258291666666,46.63060673800382L104.81089666666666,95.57334865223278L104.88047510416666,62.75966470891778L105.41390979166665,93.37065748734908L105.46029541666667,109.66397354819559L105.59945229166667,130.89614243940872L105.69222354166668,86.63377397710626L106.06330854166667,76.19236720692028L106.45758635416666,97.41947208751331L106.92144260416666,75.92725857821378L107.33891322916666,95.94931307705966L107.38529885416668,111.75191116333008L107.43168447916666,102.29531634937634L107.50126291666666,95.00117683410645L107.57084135416667,95.53409489718351L107.96511916666667,122.02528485384855L108.22024010416666,89.11388085105203L108.54493947916667,137.8366298675537L109.28710947916666,101.56987380981445L109.84373697916668,97.7802751714533L109.93650822916668,139.691500230269L109.98289385416666,110.56404772671786L110.12205072916667,79.31281055103649L110.19162916666667,65.21807306463067L110.23801479166666,78.50269161571156L110.44675010416667,116.17681295221502L110.60909979166667,54.21281173012473L110.91060635416667,67.49457602067426L111.09614885416667,108.34245092218572L111.39765541666667,119.33236676996404L111.44404104166667,86.45901957425204L111.51361947916668,52.42091924493964L111.88470447916667,55.866717598655L112.00066854166667,49.62202522971414L112.04705416666667,106.6981820193204L112.27898229166667,59.117167906327694L112.37175354166666,60.065764513882726L113.04434510416667,104.21120036732067L113.16030916666666,102.17227623679422L113.32265885416666,73.02241932262073L114.34314260416667,66.87207100608133L114.52868510416667,120.90534054149282L114.69103479166667,125.72330162741922L114.78380604166667,92.91216503490101L115.03892697916667,99.56695019115101L115.17808385416666,83.75990191372958L115.31724072916667,108.50124601884322L115.82748260416668,107.01150616732511L116.08260354166667,89.11817758733577L116.19856760416667,67.96915054321289L116.40730291666667,97.13693098588423L116.43049572916668,89.14273036609997L116.70880947916667,119.04285881736062L116.96393041666667,122.36036890203303L117.03350885416666,125.14637270840731L118.35549916666666,92.61624266884543L118.47146322916667,90.59165122292258L118.49465604166667,98.27169903841886L118.72658416666667,79.68039634011008L120.41965947916667,56.85551938143644L120.67478041666666,126.3042817549272L120.69797322916666,120.48186648975718L120.74435885416668,104.18185979669744L120.79074447916666,106.61034445329146L120.86032291666666,97.26976151899858L120.88351572916666,92.12518709356135L121.46333604166666,115.40732886574484L121.57930010416666,60.0725779099898L121.64887854166666,95.70004099065608L121.83442104166667,89.04556274414062L122.08954197916667,156.6052343195135L122.29827729166666,80.28319774974476L122.36785572916666,106.55528484691273L122.39104854166666,118.52166470614347L122.73894072916666,95.8188150579279L123.11002572916668,130.76656514948064L123.24918260416666,50.84070240367542L123.34195385416666,65.92740284312855L123.55068916666667,64.10552527687766L123.59707479166667,72.21217762340198L123.80581010416665,139.84289880232376L123.89858135416667,95.82228313792835L124.15370229166666,68.02638920870695L124.75671541666667,104.57672986117277L124.96545072916668,86.81101434881036L125.31334291666667,78.97511777010831L125.47569260416665,130.89350301569158L125.61484947916666,109.57137888128108L125.70762072916666,88.30505093661222L125.73081354166666,107.70825264670633L126.17147697916666,103.00044146451083L126.24105541666667,96.34114473516291L127.07599666666667,136.80231337113815L127.21515354166667,93.08071986111727L127.56304572916666,62.23853197964755L127.60943135416667,99.896540555087L128.00370916666665,118.97199335965243L128.02690197916667,118.64467412775213L128.46756541666667,134.1460710005327L128.49075822916666,145.7649062763561L128.56033666666667,106.64204822887073L128.76907197916668,103.78342957930131L129.02419291666666,108.34607245705344L129.60401322916667,91.38412284851074L129.67359166666665,81.50291841680352L129.92871260416666,70.29027817466043L129.99829104166668,116.38854997808284L130.04467666666667,150.81538217717952L130.09106229166667,150.5030094493519L130.36937604166667,99.42184326865457L130.76365385416668,94.97671612826261L131.25070291666665,66.71554704145953L131.41305260416667,146.27704655040395L131.59859510416666,101.62923015247692L131.69136635416666,81.79755176197399L131.85371604166667,113.60711912675337L131.87690885416666,66.41047876531427L131.90010166666667,64.8778329329057L132.13202979166667,181.3312329378995L132.73504291666666,140.39263551885432L132.85100697916667,123.85066119107333L133.22209197916666,99.48399248990145L133.47721291666667,86.42059447548606L133.56998416666667,147.55817985534668L133.59317697916669,119.67091889814897L133.77871947916668,85.17058181762695L133.91787635416665,106.5221079046076L133.98745479166666,149.35295729203656L134.19619010416667,85.17027490789239L134.28896135416667,103.33696798844771L134.45131104166666,91.20424305308948L134.47450385416667,99.52616188742898L134.61366072916667,82.64695514332165L134.75281760416667,93.42092930186878L134.79920322916666,112.99351449446245L134.86878166666665,93.5343631397594L135.68053010416665,115.39066366715865L135.95884385416667,63.71363223682751L136.39950729166668,119.13342788002707L136.44589291666665,88.60606800426136L136.93294197916669,125.6309831792658L137.39679822916668,82.8359501578591L137.95342572916667,92.63514830849387L138.02300416666665,128.3023561997847L138.32451072916666,93.58165792985396L138.5100532291667,143.1991715864702L138.71878854166667,99.5896615115079L138.78836697916668,91.09351002086292L138.83475260416665,96.53833423961292L138.85794541666667,114.91817613081498L139.87842916666668,82.42634842612527L140.01758604166668,134.4442951895974L140.08716447916666,142.063759023493L140.24951416666667,118.99160489169034L140.55102072916668,62.45054522427645L140.59740635416668,110.76961586692117L140.62059916666666,106.15719223022461L140.78294885416668,138.35097989169034L141.20041947916667,100.45407277887517L141.73385416666667,74.63857529380105L141.8498182291667,131.8757983121005L142.31367447916665,101.04696100408381L142.36006010416668,98.36232948303223L142.49921697916665,82.87551082264294L143.10223010416667,93.06417742642489L143.21819416666668,109.39177530462092L143.61247197916668,100.96437159451571L144.02994260416665,72.8510409268466L144.21548510416665,130.2248694679954L144.74891979166665,125.55026591907847L144.84169104166668,87.79785190929066L144.93446229166665,118.67548786510122L144.95765510416666,115.34831012379038L145.56066822916668,122.04744373668325L146.09410291666666,116.03778284246272L146.7666944791667,119.92261557145552L147.02181541666667,117.08029382879084L147.39290041666666,140.84790541908959L147.71759979166666,119.88778131658381L147.74079260416667,94.84244311939587L148.20464885416666,73.02309452403675L148.76127635416665,125.83734928477895L149.13236135416665,162.96633755077016L149.57302479166668,125.05141483653676L149.64260322916667,73.90346509760077L149.75856729166668,135.5135687047785L150.61670135416668,108.83154227516867L150.7790510416667,118.10745932839133L150.87182229166666,95.03877327658914L151.01097916666666,117.20959489995784L151.15013604166668,128.1126246018843L151.26610010416667,128.0460865714333L151.33567854166668,85.80404350974344L151.38206416666668,59.62010088833895L151.93869166666667,87.61956804448907L152.12423416666667,81.65885925292969L152.51851197916665,107.2684509970925L152.63447604166666,174.7588223544034L152.68086166666666,142.7596768465909L152.95917541666668,149.39966895363548L153.00556104166665,109.9511489868164L153.14471791666668,73.2786275690252L153.42303166666667,124.19397042014383L153.53899572916666,74.57053340565075L153.77092385416668,127.01201560280539L154.00285197916668,121.3948922590776L154.65225072916667,154.29494060169566L154.69863635416667,127.78487569635564L154.79140760416666,98.95948375355114L155.13929979166664,105.86219059337269L156.09020510416667,155.5230705954812L156.15978354166666,111.62399118596858L156.57725416666668,98.69250297546387L156.99472479166667,98.18048546530984L157.38900260416665,125.80586034601384L157.4585810416667,72.74982209639117L157.57454510416667,74.68166542053223L157.69050916666666,129.84463899785823L158.10797979166665,85.4359359741211L158.13117260416666,94.32882967862216L158.52545041666667,108.84952718561345L158.59502885416666,133.96751091696999L158.75737854166667,102.15748318758878L159.38358447916664,98.44108252091841L159.42997010416667,49.46028379960492L159.59231979166668,154.75665560635653L160.00979041666668,148.1191187771884L160.21852572916666,90.80013500560413L160.42726104166667,130.80683170665395L160.65918916666666,69.72798884998669L160.91431010416667,90.02758182178844L161.00708135416667,98.97080872275613L161.0302741666667,83.9250500418923L161.47093760416666,133.3084836439653L161.58690166666668,61.871989683671444L161.63328729166665,104.02665554393421L161.72605854166667,139.42074446244675L161.93479385416666,83.06929362903942L162.35226447916665,156.73364535245028L162.81612072916667,98.56559580022639L162.93208479166668,79.63113732771441L163.14082010416666,94.38057465986772L163.2799769791667,111.26395537636496L163.30316979166668,100.4699093211781L163.39594104166665,125.03659109635787L163.4655194791667,145.37675753506747L163.97576135416668,84.00763945146039L164.39323197916667,154.6082340587269L164.48600322916664,135.80120450800115L164.60196729166665,74.19355617869984L164.97305229166665,116.20161125876687L165.01943791666667,97.26647758483887L165.25136604166667,139.90286896445534L165.39052291666667,81.58176352761008L165.43690854166667,102.10392743890935L165.57606541666667,158.18753814697266L165.62245104166666,158.38795020363548L165.66883666666666,136.55199779163706L165.9471504166667,171.39739348671654L165.99353604166666,175.2328751303933L166.03992166666666,136.21832552823153L166.57335635416666,66.9572077664462L166.78209166666667,168.0505428314209L166.85167010416666,105.70130851052024L167.22275510416668,105.42975477738814L167.47787604166666,165.47633743286133L167.52426166666666,163.42344890941274L167.6634185416667,107.75005375255238L167.96492510416667,55.737017544833094L168.08088916666668,151.36901664733887L168.24323885416666,116.47887351296164L168.3823957291667,124.53905972567472L168.68390229166667,135.42692808671433L169.2869154166667,85.40567467429422L169.82035010416666,131.64843958074397L169.91312135416666,139.29460456154564L169.93631416666665,177.11140823364258L170.09866385416666,105.05888505415483L170.49294166666667,131.8680948777632L170.74806260416668,113.7736483487216L171.0031835416667,113.0986310785467L171.16553322916664,112.96616883711381L171.30469010416667,126.44368015636098L171.86131760416666,103.91754913330078L173.13692229166668,122.26817321777344L173.22969354166665,106.23180198669434L173.53120010416666,131.06761290810323L173.87909229166667,162.2200251492587L174.06463479166666,102.5453557101163L174.08782760416668,92.92471764304422L174.18059885416667,114.29174267161977L174.41252697916667,147.00663237138227L174.64445510416667,104.5276549946178L174.66764791666665,113.96878155795011L174.69084072916664,140.49351674860173L174.8763832291667,107.27173493125223L175.34023947916666,100.44888600436124L175.89686697916665,96.95082092285156L176.05921666666666,122.04873275756836L176.12879510416667,87.69353329051624L176.36072322916667,96.70869983326305L176.56945854166665,167.4387182755904L176.6390369791667,92.86468609896573L176.87096510416666,146.11235878684303L176.98692916666667,117.02474316683683L177.82187041666666,119.3563364202326L178.03060572916667,125.62957139448686L178.07699135416667,132.85809360850942L178.16976260416666,116.2613972750577L178.30891947916666,120.59735662286931L178.37849791666665,126.43281555175781L178.54084760416666,85.53988630121405L178.72639010416665,118.32149817726828L178.79596854166667,105.65109807794744L178.98151104166666,133.06022435968572L179.07428229166666,107.76631996848367L179.16705354166666,134.73460110751066L179.70048822916667,107.17100715637207L179.79325947916666,145.03737675059926L179.95560916666665,117.16263771057129L180.04838041666667,100.6124995838512L180.30350135416666,116.49375863508745L180.58181510416668,156.05159984935415L180.95290010416667,106.71969639171253L181.53272041666665,138.2353669946844L181.88061260416666,113.23357928882945L182.20531197916665,112.64342256025834L182.39085447916665,139.0610769445246L182.57639697916665,111.88323783874512L182.71555385416667,100.16238576715642L182.73874666666666,99.53294459256259L183.34175979166668,153.21265411376953L183.66645916666667,143.855712890625L184.24627947916667,111.67128597606312L184.64055729166665,121.57735009626909L184.91887104166668,102.78643330660734L184.98844947916666,102.42203937877308L185.12760635416666,131.93558432839131L185.54507697916665,106.85154481367631L185.59146260416665,102.05387046120383L186.00893322916667,97.25582781704989L186.10170447916664,100.89289231733842L186.58875354166668,117.2225771817294L186.68152479166667,94.329627643932L186.8438744791667,93.97124914689498L187.14538104166667,114.1967847997492L187.28453791666666,108.49421778592196L187.60923729166666,100.25436661460184L187.88755104166665,75.29081986167215L188.23544322916666,143.297045100819L188.4209857291667,116.87957486239347L188.44417854166667,114.34833682667124L188.9544204166667,152.03154269131747L189.04719166666666,102.67962871898304L189.37189104166666,138.40174276178533L189.65020479166668,139.99675265225497L189.67339760416667,187.120379187844L189.83574729166668,88.45417837663129L190.16044666666664,136.27003981850365L190.29960354166667,117.07918895374644L190.46195322916665,154.2349090576172L190.50833885416665,154.3796476884322L190.7170741666667,126.85791622508657L190.76345979166666,122.64465938914907L190.78665260416668,129.4318147139116L191.22731604166665,173.33948759599164L191.29689447916667,99.6758110739968L191.50562979166668,115.90108524669301L191.8071363541667,95.51073906638406L192.36376385416668,100.15735244750977L192.73484885416667,118.13480498573996L192.98996979166665,107.41128678755327L193.40744041666667,118.27668935602361L193.63936854166667,112.87335933338512L193.66256135416666,87.52074310996316L193.80171822916665,153.72915250604802L193.96406791666666,114.50317278775302L194.0568391666667,97.37760959972034L194.08003197916668,74.74537988142535L194.10322479166666,97.83349331942472L194.61346666666668,135.81817661632192L194.63665947916667,135.99731982838023L194.72943072916667,135.6890290000222L194.77581635416666,108.31719225103205L194.98455166666668,167.91682226007634L195.07732291666665,111.90818960016423L195.74991447916665,130.0489181171764L195.77310729166666,119.48852244290438L195.98184260416667,115.66841697692871L196.05142104166666,112.85586547851562L196.21377072916667,125.39021249250932L196.44569885416666,77.75085483897816L196.46889166666665,129.15829675847834L196.51527729166668,101.53408813476562L196.63124135416666,140.9040699005127L196.77039822916666,106.58569960160689L196.8631694791667,142.2366719679399L196.90955510416669,106.93038992448287L197.28064010416668,139.45140474492854L197.41979697916668,116.3604370463978L197.44298979166666,126.32570405439897L197.62853229166666,127.33396391435103L198.06919572916667,116.13820370760831L198.46347354166667,123.7407261241566L199.06648666666666,96.19999694824219L199.59992135416667,163.66372854059392L199.90142791666668,145.89386974681508L199.97100635416666,131.42798631841487L200.68998354166666,146.07381092418325L200.71317635416665,137.08166261152786L201.08426135416667,102.13590743324973L201.10745416666668,98.3049373626709L201.33938229166668,132.61207476529208L201.40896072916667,161.50781041925603L201.45534635416666,140.3093709078702L201.71046729166667,160.4850030378862L201.84962416666667,171.50987590443003L201.91920260416666,97.11277718977495L202.01197385416668,114.1701757257635L202.42944447916665,95.98497598821467L202.45263729166666,71.72618605873801L202.54540854166666,156.85131454467773L202.61498697916667,191.30733385953036L202.66137260416664,138.44863856922495L202.98607197916667,192.66703605651855L203.07884322916667,134.86718611283737L203.33396416666665,115.31755776838823L203.4035426041667,154.34263437444514L203.86739885416665,163.42068672180176L204.05294135416665,109.9560902335427L204.28486947916667,119.89846177534623L204.30806229166666,73.26012091203168L204.56318322916667,195.83112196488815L205.09661791666664,119.50911608609286L205.21258197916666,91.21737878972834L205.60685979166666,102.04662739146839L206.62734354166668,117.76540842923251L206.65053635416666,110.61962907964534L206.7433076041667,122.7693261233243L206.83607885416666,155.45647118308327L207.25354947916668,93.49022951993075L207.39270635416665,110.25103048844771L208.38999729166667,115.44655192982066L208.57553979166667,153.90719084306195L208.76108229166667,136.65515015342018L208.78427510416665,85.96768778020684L209.1785529166667,97.69501564719461L209.48005947916667,86.7260003523393L209.57283072916667,114.60525096546519L209.82795166666665,144.71938757462937L210.10626541666667,123.26295974037863L210.17584385416666,114.26409010453658L210.22222947916666,86.48964916576038L210.31500072916666,104.0870246887207L210.50054322916665,177.41003140536222L211.89211197916666,151.36794246326792L212.03126885416668,96.9857779416171L212.05446166666667,106.37736927379261L212.44873947916668,94.37597101384944L212.61108916666666,121.23057278719816L213.14452385416666,126.21853117509322L213.2372951041667,121.45848395607688L213.49241604166667,143.73792093450373L213.56199447916666,141.13354630903763L213.95627229166666,82.16826803034003L214.09542916666666,140.37317744168368L214.39693572916667,105.70090952786532L214.86079197916666,143.17934521761808L215.06952729166667,146.0150684009899L215.44061229166667,133.97905072298917L215.48699791666667,144.68740758028898L215.69573322916668,96.11050206964666L215.9044685416667,200.29662791165438L216.09001104166668,105.31803963401101L216.55386729166665,126.24256220730868L216.60025291666668,119.2909646467729L216.66983135416666,185.75567436218262L216.71621697916666,165.04850526289508L216.85537385416666,87.80362181230024L217.13368760416668,130.10321044921875L217.15688041666667,132.852200941606L217.31923010416668,153.60746279629794L217.38880854166666,103.13342545249246L217.50477260416667,109.42280387878418L217.6671222916667,161.6804164539684L217.71350791666666,127.921818819913L218.89634135416668,94.12049935080789L219.15146229166666,163.88737366416237L219.22104072916667,104.80639041553844L219.33700479166666,146.15201152454722L219.70808979166665,103.45666278492321L219.80086104166668,80.87814227017489L219.82405385416666,119.66999816894531L219.87043947916666,127.3151810385964L220.1023676041667,111.57359660755505L220.19513885416666,131.0313668684526L220.28791010416668,133.8356624950062L220.49664541666667,100.7905686118386L220.51983822916668,102.24802155928178L220.63580229166666,170.78777868097478L220.72857354166666,132.52629349448466L220.75176635416665,132.5245441089977L221.09965854166666,158.86132777820933L221.81863572916666,140.14591078324753L222.09694947916668,101.89136175675826L222.25929916666666,126.3200569152832L222.37526322916668,105.92449326948686L222.69996260416664,143.7296343716708L222.90869791666668,159.1600123318759L223.2565901041667,185.23070526123047L223.51171104166667,126.59719640558416L223.67406072916665,141.286602193659L223.69725354166667,150.40412313287908L223.90598885416665,131.2635440826416L224.78731572916666,112.58790258927779L224.85689416666668,127.79061490839177L224.90327979166668,171.8530009876598L224.97285822916666,176.12647351351652L224.99605104166665,162.2585116299716L225.08882229166667,131.4673935283314L225.83099229166666,133.9675722989169L226.15569166666666,148.05399253151634L226.7818976041667,93.74235586686568L226.92105447916666,105.92851378700949L227.01382572916668,159.28851543773305L227.43129635416665,169.17125441811302L227.54726041666666,116.64945394342595L227.89515260416667,69.47540213844992L227.96473104166665,119.68930279124868L228.03430947916667,130.8162538355047L228.52135854166664,163.47279999472877L228.77647947916668,106.38673002069646L229.0779860416667,134.3769285028631L229.10117885416668,140.87064743041992L229.33310697916667,129.4455028880726L229.40268541666666,152.8694369576194L229.49545666666666,104.99762587113814L229.88973447916666,125.91404602744363L229.9361201041667,127.77302898060191L230.00569854166667,156.10181028192693L230.49274760416668,150.68715529008344L230.53913322916668,155.3955496007746L230.6550972916667,177.86444195834073L230.91021822916667,90.12524049932307L231.09576072916667,163.6215591430664L231.18853197916667,116.73106124184348L231.58280979166668,112.2011042508212L231.72196666666667,208.04953609813344L231.95389479166667,107.04959366538309L232.00028041666667,118.02330467917703L232.13943729166667,139.63297254388982L232.25540135416668,145.36613845825195L232.37136541666666,114.27823864329946L232.44094385416668,127.06910081343217L232.78883604166668,97.33046826449308L232.81202885416667,76.66230739246716L233.43823479166664,166.99326948686078L233.62377729166664,130.08525622974742L233.85570541666667,135.2232014049183L234.11082635416665,161.8275489807129L234.59787541666665,146.3763932314786L234.99215322916666,130.1563979062167L235.01534604166665,121.12475031072444L235.7575160416667,204.6069296056574L235.78070885416668,185.69131539084694L235.91986572916667,111.40353792363948L237.12589197916665,128.36128286881882L237.17227760416668,155.2127541628751L237.3346272916667,159.52529629794034L237.40420572916668,93.29058473760432L237.56655541666666,135.91614220359108L238.19276135416666,134.5628851110285L238.67981041666667,98.4751801924272L238.9117385416667,164.06759106029165L239.2828235416667,128.46336104653096L239.32920916666666,151.81922253695402L239.37559479166666,178.02581509676847L239.49155885416667,104.88428410616788L240.23372885416666,136.27016258239746L240.34969291666667,164.6615534695712L240.60481385416665,139.176720532504L240.62800666666666,105.51231349598278L240.65119947916665,126.32478332519531L240.72077791666666,108.76666155728427L241.09186291666666,121.12300092523748L241.71806885416666,151.74224957552823L241.78764729166667,110.83910023082386L242.2515035416667,125.91211249611594L242.39066041666666,123.7175544391979L242.41385322916665,104.49852926080877L243.01686635416667,164.66090895912865L243.17921604166668,122.78261531483042L243.3415657291667,151.12394922429866L244.10692854166666,104.00646088340066L244.17650697916665,100.86790986494584L244.61717041666668,123.74993341619319L244.64036322916667,141.79536646062678L244.84909854166665,148.34414499456233L245.01144822916666,125.45122614773837L245.08102666666667,130.55461328679866L245.24337635416668,140.6307974728671L245.31295479166667,172.0268039703369L245.75361822916665,153.5588482943448L245.82319666666666,131.90661204944956L246.07831760416667,133.14560664783824L246.33343854166668,119.59069269353694L246.56536666666668,161.69435015591708L246.61175229166665,112.69961773265491L246.63494510416666,111.21936139193448L246.70452354166667,106.82588715986772L247.26115104166666,168.12699404629794L247.37711510416668,129.87127876281738L247.40030791666666,93.4539834802801L247.49307916666666,131.61372808976608L247.93374260416667,177.72034783796832L247.95693541666668,160.6766374761408L248.16567072916666,152.35533246127042L248.35121322916666,120.23566350069913L248.62952697916668,102.20615907148881L249.55723947916667,112.82011049444026L249.76597479166665,138.98511678522283L249.78916760416666,154.78111631220037L249.92832447916666,127.53320971402255L249.97471010416666,130.7960284839977L250.18344541666667,158.5142128684304L250.99519385416667,118.99593231894754L251.64459260416666,127.30551338195801L251.71417104166665,143.5526088367809L251.7837494791667,170.7905101776123L251.99248479166667,157.59695174477318L252.6418835416667,149.30722774158824L253.19851104166668,157.22608202153987L253.43043916666667,114.90826294638894L254.70604385416667,128.7261985432018L254.84520072916666,138.45809138904917L254.9379719791667,160.90537730130282L255.00755041666667,151.1200821616433L255.26267135416666,105.77607172185725L255.63375635416668,138.48632708462802L255.68014197916668,114.79350939663973L255.7961060416667,151.45393857088956L256.5150832291667,137.79688505692917L256.6310472916667,83.33768619190563L256.65424010416666,113.88545556501909L256.7006257291667,109.62619295987216L256.9789394791667,157.1278402155096L257.02532510416665,160.71932862021706L257.30363885416665,131.48857030001554L257.5355669791667,114.50820610739969L257.69791666666663,105.46231790022416" style="fill: none;" fill="none"></path></g></g></g></g></g></g><g transform="translate(48, 177)" clip-path="url(#clip_1)"><clipPath id="clip_1"><rect width="281" height="23"></rect></clipPath><g><g><line x1="0" y1="0" x2="0" y2="5" style="visibility: inherit;" fill="rgb(0, 0, 0)" stroke="rgb(204, 204, 204)" stroke-width="1px"></line><line x1="23.427083333333332" y1="0" x2="23.427083333333332" y2="5" style="visibility: inherit;" fill="rgb(0, 0, 0)" stroke="rgb(204, 204, 204)" stroke-width="1px"></line><line x1="46.854166666666664" y1="0" x2="46.854166666666664" y2="5" style="visibility: inherit;" fill="rgb(0, 0, 0)" stroke="rgb(204, 204, 204)" stroke-width="1px"></line><line x1="70.28125" y1="0" x2="70.28125" y2="5" style="visibility: inherit;" fill="rgb(0, 0, 0)" stroke="rgb(204, 204, 204)" stroke-width="1px"></line><line x1="93.70833333333333" y1="0" x2="93.70833333333333" y2="5" style="visibility: inherit;" fill="rgb(0, 0, 0)" stroke="rgb(204, 204, 204)" stroke-width="1px"></line><line x1="117.13541666666667" y1="0" x2="117.13541666666667" y2="5" style="visibility: inherit;" fill="rgb(0, 0, 0)" stroke="rgb(204, 204, 204)" stroke-width="1px"></line><line x1="140.5625" y1="0" x2="140.5625" y2="5" style="visibility: inherit;" fill="rgb(0, 0, 0)" stroke="rgb(204, 204, 204)" stroke-width="1px"></line><line x1="163.98958333333334" y1="0" x2="163.98958333333334" y2="5" style="visibility: inherit;" fill="rgb(0, 0, 0)" stroke="rgb(204, 204, 204)" stroke-width="1px"></line><line x1="187.41666666666666" y1="0" x2="187.41666666666666" y2="5" style="visibility: inherit;" fill="rgb(0, 0, 0)" stroke="rgb(204, 204, 204)" stroke-width="1px"></line><line x1="210.84375" y1="0" x2="210.84375" y2="5" style="visibility: inherit;" fill="rgb(0, 0, 0)" stroke="rgb(204, 204, 204)" stroke-width="1px"></line><line x1="234.27083333333334" y1="0" x2="234.27083333333334" y2="5" style="visibility: inherit;" fill="rgb(0, 0, 0)" stroke="rgb(204, 204, 204)" stroke-width="1px"></line><line x1="257.69791666666663" y1="0" x2="257.69791666666663" y2="5" style="visibility: inherit;" fill="rgb(0, 0, 0)" stroke="rgb(204, 204, 204)" stroke-width="1px"></line><line x1="281.125" y1="0" x2="281.125" y2="5" style="visibility: inherit;" fill="rgb(0, 0, 0)" stroke="rgb(204, 204, 204)" stroke-width="1px"></line></g><g transform="translate(0, 8)"><text x="0" y="0" dx="0em" dy="0.95em" style="text-anchor: middle; visibility: hidden; font-family: &quot;Helvetica Neue&quot;, sans-serif; font-size: 12px; font-weight: 200;" fill="rgb(50, 49, 63)" stroke="none" stroke-width="1px">-100k</text><text x="23.427083333333332" y="0" dx="0em" dy="0.95em" style="text-anchor: middle; visibility: inherit; font-family: &quot;Helvetica Neue&quot;, sans-serif; font-size: 12px; font-weight: 200;" fill="rgb(50, 49, 63)" stroke="none" stroke-width="1px">0</text><text x="46.854166666666664" y="0" dx="0em" dy="0.95em" style="text-anchor: middle; visibility: hidden; font-family: &quot;Helvetica Neue&quot;, sans-serif; font-size: 12px; font-weight: 200;" fill="rgb(50, 49, 63)" stroke="none" stroke-width="1px">100k</text><text x="70.28125" y="0" dx="0em" dy="0.95em" style="text-anchor: middle; visibility: inherit; font-family: &quot;Helvetica Neue&quot;, sans-serif; font-size: 12px; font-weight: 200;" fill="rgb(50, 49, 63)" stroke="none" stroke-width="1px">200k</text><text x="93.70833333333333" y="0" dx="0em" dy="0.95em" style="text-anchor: middle; visibility: hidden; font-family: &quot;Helvetica Neue&quot;, sans-serif; font-size: 12px; font-weight: 200;" fill="rgb(50, 49, 63)" stroke="none" stroke-width="1px">300k</text><text x="117.13541666666667" y="0" dx="0em" dy="0.95em" style="text-anchor: middle; visibility: inherit; font-family: &quot;Helvetica Neue&quot;, sans-serif; font-size: 12px; font-weight: 200;" fill="rgb(50, 49, 63)" stroke="none" stroke-width="1px">400k</text><text x="140.5625" y="0" dx="0em" dy="0.95em" style="text-anchor: middle; visibility: hidden; font-family: &quot;Helvetica Neue&quot;, sans-serif; font-size: 12px; font-weight: 200;" fill="rgb(50, 49, 63)" stroke="none" stroke-width="1px">500k</text><text x="163.98958333333334" y="0" dx="0em" dy="0.95em" style="text-anchor: middle; visibility: inherit; font-family: &quot;Helvetica Neue&quot;, sans-serif; font-size: 12px; font-weight: 200;" fill="rgb(50, 49, 63)" stroke="none" stroke-width="1px">600k</text><text x="187.41666666666666" y="0" dx="0em" dy="0.95em" style="text-anchor: middle; visibility: hidden; font-family: &quot;Helvetica Neue&quot;, sans-serif; font-size: 12px; font-weight: 200;" fill="rgb(50, 49, 63)" stroke="none" stroke-width="1px">700k</text><text x="210.84375" y="0" dx="0em" dy="0.95em" style="text-anchor: middle; visibility: inherit; font-family: &quot;Helvetica Neue&quot;, sans-serif; font-size: 12px; font-weight: 200;" fill="rgb(50, 49, 63)" stroke="none" stroke-width="1px">800k</text><text x="234.27083333333334" y="0" dx="0em" dy="0.95em" style="text-anchor: middle; visibility: hidden; font-family: &quot;Helvetica Neue&quot;, sans-serif; font-size: 12px; font-weight: 200;" fill="rgb(50, 49, 63)" stroke="none" stroke-width="1px">900k</text><text x="257.69791666666663" y="0" dx="0em" dy="0.95em" style="text-anchor: middle; visibility: inherit; font-family: &quot;Helvetica Neue&quot;, sans-serif; font-size: 12px; font-weight: 200;" fill="rgb(50, 49, 63)" stroke="none" stroke-width="1px">1M</text><text x="281.125" y="0" dx="0em" dy="0.95em" style="text-anchor: middle; visibility: hidden; font-family: &quot;Helvetica Neue&quot;, sans-serif; font-size: 12px; font-weight: 200;" fill="rgb(50, 49, 63)" stroke="none" stroke-width="1px">1.1M</text></g><line x1="0" y1="0" x2="281.125" y2="0" fill="rgb(0, 0, 0)" stroke="rgb(204, 204, 204)" stroke-width="1px"></line></g></g></g></g></svg>