<svg viewBox="0 0 330 200" xmlns="http://www.w3.org/2000/svg"><g><g><g><g><g><line x1="48.875" y1="177" x2="43.875" y2="177" style="visibility: inherit;" fill="rgb(0, 0, 0)" stroke="rgb(204, 204, 204)" stroke-width="1px"></line><line x1="48.875" y1="159.3" x2="43.875" y2="159.3" style="visibility: inherit;" fill="rgb(0, 0, 0)" stroke="rgb(204, 204, 204)" stroke-width="1px"></line><line x1="48.875" y1="141.6" x2="43.875" y2="141.6" style="visibility: inherit;" fill="rgb(0, 0, 0)" stroke="rgb(204, 204, 204)" stroke-width="1px"></line><line x1="48.875" y1="123.9" x2="43.875" y2="123.9" style="visibility: inherit;" fill="rgb(0, 0, 0)" stroke="rgb(204, 204, 204)" stroke-width="1px"></line><line x1="48.875" y1="106.2" x2="43.875" y2="106.2" style="visibility: inherit;" fill="rgb(0, 0, 0)" stroke="rgb(204, 204, 204)" stroke-width="1px"></line><line x1="48.875" y1="88.5" x2="43.875" y2="88.5" style="visibility: inherit;" fill="rgb(0, 0, 0)" stroke="rgb(204, 204, 204)" stroke-width="1px"></line><line x1="48.875" y1="70.8" x2="43.875" y2="70.8" style="visibility: inherit;" fill="rgb(0, 0, 0)" stroke="rgb(204, 204, 204)" stroke-width="1px"></line><line x1="48.875" y1="53.10000000000001" x2="43.875" y2="53.10000000000001" style="visibility: inherit;" fill="rgb(0, 0, 0)" stroke="rgb(204, 204, 204)" stroke-width="1px"></line><line x1="48.875" y1="35.400000000000006" x2="43.875" y2="35.400000000000006" style="visibility: inherit;" fill="rgb(0, 0, 0)" stroke="rgb(204, 204, 204)" stroke-width="1px"></line><line x1="48.875" y1="17.69999999999999" x2="43.875" y2="17.69999999999999" style="visibility: inherit;" fill="rgb(0, 0, 0)" stroke="rgb(204, 204, 204)" stroke-width="1px"></line><line x1="48.875" y1="0" x2="43.875" y2="0" style="visibility: inherit;" fill="rgb(0, 0, 0)" stroke="rgb(204, 204, 204)" stroke-width="1px"></line></g><g transform="translate(38.875, 0)"><text x="0" y="177" dx="0em" dy="0.3em" style="text-anchor: end; visibility: hidden; font-family: &quot;Helvetica Neue&quot;, sans-serif; font-size: 12px; font-weight: 200;" fill="rgb(50, 49, 63)" stroke="none" stroke-width="1px">10</text><text x="0" y="159.3" dx="0em" dy="0.3em" style="text-anchor: end; visibility: inherit; font-family: &quot;Helvetica Neue&quot;, sans-serif; font-size: 12px; font-weight: 200;" fill="rgb(50, 49, 63)" stroke="none" stroke-width="1px">10.5</text><text x="0" y="141.6" dx="0em" dy="0.3em" style="text-anchor: end; visibility: hidden; font-family: &quot;Helvetica Neue&quot;, sans-serif; font-size: 12px; font-weight: 200;" fill="rgb(50, 49, 63)" stroke="none" stroke-width="1px">11</text><text x="0" y="123.9" dx="0em" dy="0.3em" style="text-anchor: end; visibility: inherit; font-family: &quot;Helvetica Neue&quot;, sans-serif; font-size: 12px; font-weight: 200;" fill="rgb(50, 49, 63)" stroke="none" stroke-width="1px">11.5</text><text x="0" y="106.2" dx="0em" dy="0.3em" style="text-anchor: end; visibility: hidden; font-family: &quot;Helvetica Neue&quot;, sans-serif; font-size: 12px; font-weight: 200;" fill="rgb(50, 49, 63)" stroke="none" stroke-width="1px">12</text><text x="0" y="88.5" dx="0em" dy="0.3em" style="text-anchor: end; visibility: inherit; font-family: &quot;Helvetica Neue&quot;, sans-serif; font-size: 12px; font-weight: 200;" fill="rgb(50, 49, 63)" stroke="none" stroke-width="1px">12.5</text><text x="0" y="70.8" dx="0em" dy="0.3em" style="text-anchor: end; visibility: hidden; font-family: &quot;Helvetica Neue&quot;, sans-serif; font-size: 12px; font-weight: 200;" fill="rgb(50, 49, 63)" stroke="none" stroke-width="1px">13</text><text x="0" y="53.10000000000001" dx="0em" dy="0.3em" style="text-anchor: end; visibility: inherit; font-family: &quot;Helvetica Neue&quot;, sans-serif; font-size: 12px; font-weight: 200;" fill="rgb(50, 49, 63)" stroke="none" stroke-width="1px">13.5</text><text x="0" y="35.400000000000006" dx="0em" dy="0.3em" style="text-anchor: end; visibility: hidden; font-family: &quot;Helvetica Neue&quot;, sans-serif; font-size: 12px; font-weight: 200;" fill="rgb(50, 49, 63)" stroke="none" stroke-width="1px">14</text><text x="0" y="17.69999999999999" dx="0em" dy="0.3em" style="text-anchor: end; visibility: inherit; font-family: &quot;Helvetica Neue&quot;, sans-serif; font-size: 12px; font-weight: 200;" fill="rgb(50, 49, 63)" stroke="none" stroke-width="1px">14.5</text><text x="0" y="0" dx="0em" dy="0.3em" style="text-anchor: end; visibility: hidden; font-family: &quot;Helvetica Neue&quot;, sans-serif; font-size: 12px; font-weight: 200;" fill="rgb(50, 49, 63)" stroke="none" stroke-width="1px">15</text></g><line x1="48.875" y1="0" x2="48.875" y2="177" fill="rgb(0, 0, 0)" stroke="rgb(204, 204, 204)" stroke-width="1px"></line></g></g><g transform="translate(48, 0)" clip-path="url(#clip_0)"><clipPath id="clip_0"><rect width="281" height="177"></rect></clipPath><g><g><g><line x1="0" y1="0" x2="0" y2="177" fill="rgb(0, 0, 0)" stroke="rgb(60, 60, 60)" stroke-width="1px" opacity="0.25"></line><line x1="23.427083333333332" y1="0" x2="23.427083333333332" y2="177" fill="rgb(0, 0, 0)" stroke="rgb(60, 60, 60)" stroke-width="1px" opacity="0.25"></line><line x1="46.854166666666664" y1="0" x2="46.854166666666664" y2="177" fill="rgb(0, 0, 0)" stroke="rgb(60, 60, 60)" stroke-width="1px" opacity="0.25"></line><line x1="70.28125" y1="0" x2="70.28125" y2="177" fill="rgb(0, 0, 0)" stroke="rgb(60, 60, 60)" stroke-width="1px" opacity="0.25"></line><line x1="93.70833333333333" y1="0" x2="93.70833333333333" y2="177" fill="rgb(0, 0, 0)" stroke="rgb(60, 60, 60)" stroke-width="1px" opacity="0.25"></line><line x1="117.13541666666667" y1="0" x2="117.13541666666667" y2="177" fill="rgb(0, 0, 0)" stroke="rgb(60, 60, 60)" stroke-width="1px" opacity="0.25"></line><line x1="140.5625" y1="0" x2="140.5625" y2="177" fill="rgb(0, 0, 0)" stroke="rgb(60, 60, 60)" stroke-width="1px" opacity="0.25"></line><line x1="163.98958333333334" y1="0" x2="163.98958333333334" y2="177" fill="rgb(0, 0, 0)" stroke="rgb(60, 60, 60)" stroke-width="1px" opacity="0.25"></line><line x1="187.41666666666666" y1="0" x2="187.41666666666666" y2="177" fill="rgb(0, 0, 0)" stroke="rgb(60, 60, 60)" stroke-width="1px" opacity="0.25"></line><line x1="210.84375" y1="0" x2="210.84375" y2="177" fill="rgb(0, 0, 0)" stroke="rgb(60, 60, 60)" stroke-width="1px" opacity="0.25"></line><line x1="234.27083333333334" y1="0" x2="234.27083333333334" y2="177" fill="rgb(0, 0, 0)" stroke="rgb(60, 60, 60)" stroke-width="1px" opacity="0.25"></line><line x1="257.69791666666663" y1="0" x2="257.69791666666663" y2="177" fill="rgb(0, 0, 0)" stroke="rgb(60, 60, 60)" stroke-width="1px" opacity="0.25"></line><line x1="281.125" y1="0" x2="281.125" y2="177" fill="rgb(0, 0, 0)" stroke="rgb(60, 60, 60)" stroke-width="1px" opacity="0.25"></line></g><g><line x1="0" y1="177" x2="281.125" y2="177" fill="rgb(0, 0, 0)" stroke="rgb(60, 60, 60)" stroke-width="1px" opacity="0.25"></line><line x1="0" y1="159.3" x2="281.125" y2="159.3" fill="rgb(0, 0, 0)" stroke="rgb(60, 60, 60)" stroke-width="1px" opacity="0.25"></line><line x1="0" y1="141.6" x2="281.125" y2="141.6" fill="rgb(0, 0, 0)" stroke="rgb(60, 60, 60)" stroke-width="1px" opacity="0.25"></line><line x1="0" y1="123.9" x2="281.125" y2="123.9" fill="rgb(0, 0, 0)" stroke="rgb(60, 60, 60)" stroke-width="1px" opacity="0.25"></line><line x1="0" y1="106.2" x2="281.125" y2="106.2" fill="rgb(0, 0, 0)" stroke="rgb(60, 60, 60)" stroke-width="1px" opacity="0.25"></line><line x1="0" y1="88.5" x2="281.125" y2="88.5" fill="rgb(0, 0, 0)" stroke="rgb(60, 60, 60)" stroke-width="1px" opacity="0.25"></line><line x1="0" y1="70.8" x2="281.125" y2="70.8" fill="rgb(0, 0, 0)" stroke="rgb(60, 60, 60)" stroke-width="1px" opacity="0.25"></line><line x1="0" y1="53.10000000000001" x2="281.125" y2="53.10000000000001" fill="rgb(0, 0, 0)" stroke="rgb(60, 60, 60)" stroke-width="1px" opacity="0.25"></line><line x1="0" y1="35.400000000000006" x2="281.125" y2="35.400000000000006" fill="rgb(0, 0, 0)" stroke="rgb(60, 60, 60)" stroke-width="1px" opacity="0.25"></line><line x1="0" y1="17.69999999999999" x2="281.125" y2="17.69999999999999" fill="rgb(0, 0, 0)" stroke="rgb(60, 60, 60)" stroke-width="1px" opacity="0.25"></line><line x1="0" y1="0" x2="281.125" y2="0" fill="rgb(0, 0, 0)" stroke="rgb(60, 60, 60)" stroke-width="1px" opacity="0.25"></line></g></g></g><g><g><line x1="0" y1="531" x2="281.125" y2="531" fill="rgb(0, 0, 0)" stroke="rgb(153, 153, 153)" stroke-width="1.5px"></line></g></g><g><g><line x1="23.427083333333332" y1="0" x2="23.427083333333332" y2="177" fill="rgb(0, 0, 0)" stroke="rgb(153, 153, 153)" stroke-width="1.5px"></line></g></g><g><g><g><g><g><path stroke="rgb(255, 112, 67)" stroke-width="2px" d="M29.61979854166667,-4.027513702983384L29.758955416666666,3.1965227295178806L30.570703854166666,20.680697208074577L30.617089479166665,9.620243205014276L30.802631979166666,-2.1429226152255865L31.289681041666665,14.920257364314239L31.47522354166667,9.84910029337155L31.939079791666668,18.678253592339786L33.191491666666664,12.426606681777685L33.214684479166664,11.943703617885546L33.608962291666664,29.542912585000977L33.67854072916666,32.45442942334333L33.74811916666667,38.08964896618963L34.09601135416666,37.14422476217217L34.16558979166667,16.91117501241257L34.18878260416667,14.058957022706295L34.420710729166665,32.09568781706815L34.861374166666664,26.491547648679642L35.34842322916667,13.087319535296444L35.74270104166666,24.901213987336263L35.85866510416667,26.582510696606704L36.484871041666665,19.707718008283592L36.71679916666667,31.66622115571309L36.855956041666666,44.59008242711215L37.01830572916667,33.207732621588065L37.04149854166667,19.01691229240467L37.806861354166664,30.38419843177644L37.85324697916666,41.9503718120111L38.131560729166665,45.75716827768764L38.29391041666667,39.308677187263584L38.31710322916667,31.29138810553215L38.36348885416667,40.854594368474125L38.43306729166667,41.308202788077466L38.479452916666666,56.357083309214815L38.75776666666667,27.814815323645774L38.989694791666665,32.295670276342435L39.98698572916667,53.238753178993804L40.172528229166666,54.29633494572654L40.35807072916666,48.53553824160542L40.566806041666666,58.39800232728804L40.86831260416667,76.83389058399538L40.96108385416667,73.16613421611983L41.16981916666667,48.00189374073116L41.26259041666667,62.76086410393586L41.30897604166667,66.30010198897287L41.35536166666667,76.59556694594717L41.51771135416667,47.19324234347161L41.63367541666666,41.95644543660049L41.68006104166667,50.84297248656969L41.79602510416667,47.50200755200032L41.842410729166666,40.74592819453028L41.935181979166664,54.83777847433535L42.02795322916666,53.70352958765295L42.16711010416667,47.669632324735375L42.19030291666667,42.48938963959222L42.723737604166665,41.363270777163535L42.81650885416666,36.904851046620365L43.58187166666667,44.31466157401712L43.74422135416666,43.65718653181264L43.88337822916667,58.909981169575886L44.20807760416667,61.42939751522205L44.30084885416667,51.68724925742427L44.46319854166667,60.71560768738914L44.50958416666667,65.90541746887877L44.69512666666667,45.60121160193273L45.01982604166666,54.08995242502682L45.274946979166664,41.51755116693016L45.34452541666667,27.41329978890326L45.55326072916667,44.43729322783415L45.73880322916667,33.98933760662234L45.94753854166667,44.15148266040893L45.97073135416667,56.99495011260272L46.109888229166664,66.80062340313295L46.13308104166667,60.30611348279773L46.24904510416666,67.69368418770108L46.66651572916667,48.04908427665876L46.73609416666666,45.00130771321204L46.944829479166664,60.077308523190936L47.94212041666667,73.51930747719578L48.081277291666666,65.62128693993076L48.15085572916667,51.75267115077486L48.19724135416667,43.206416533238354L48.29001260416667,46.0058524834196L48.42916947916667,59.43017004412894L48.54513354166667,54.12968169261502L48.77706166666667,73.28218866949967L48.916218541666666,79.22893882731019L49.03218260416667,66.82503190600531L49.26411072916667,48.68131247856411L50.238208854166665,55.8007039910447L50.33098010416666,52.786767075412925L50.35417291666667,42.008853763314164L50.37736572916666,45.641336427910346L50.79483635416667,53.30467688726375L51.09634291666667,55.79559360794421L51.397849479166666,66.10414190085048L52.00086260416666,87.78306375379158L52.27917635416667,82.44241256257767L52.53429729166666,62.49536292756122L52.60387572916667,44.535395780828736L52.673454166666666,56.174792613760886L53.137310416666665,81.57606178651824L53.27646729166666,68.90509057838065L53.43881697916667,72.1993269300362L53.577973854166665,79.0254083833635L53.949058854166665,87.73970502147313L54.018637291666664,76.56610115009093L54.27375822916667,67.62713017247648L54.343336666666666,68.18330592025835L54.412915104166665,55.82294116323901L54.43610791666667,61.39824574652735L55.54936291666667,65.93267425455701L55.618941354166665,57.468673919189285L55.688519791666664,40.79760556611319L55.71171260416667,44.674755966621035L56.22195447916666,42.79543265101756L56.500268229166664,25.062637245639877L56.73219635416667,63.92404192685167L56.824967604166666,68.96187251328877L57.40478791666666,53.078742160317006L57.42798072916667,48.7640656697254L57.683101666666666,52.324251550883076L57.86864416666667,60.126747890979075L58.00780104166667,65.42001869003178L58.74997104166667,76.90348383975152L58.84274229166667,74.94206398243975L59.422562604166664,73.68432293841401L59.793647604166665,77.84253834312659L59.816840416666665,93.51540063038766L60.164732604166666,89.5393942631203L60.257503854166664,62.34435166102158L60.628588854166665,64.59645886648602L60.651781666666665,78.14083445685448L61.16202354166666,75.96094232450332L61.27798760416667,66.02173179179675L61.393951666666666,52.2174425327196L61.463530104166665,61.219606602395416L61.57949416666667,69.69166706812672L61.64907260416667,71.50719857461625L61.927386354166664,79.29424544481861L62.11292885416667,82.37027041142241L62.275278541666665,69.8708396913115L62.43762822916666,71.72039817819021L62.646363541666666,87.47110624700197L62.739134791666665,82.78452844851857L62.785520416666664,77.80024274965314L62.83190604166666,75.47679733741397L62.90148447916667,71.0568959683664L63.063834166666666,60.42501969161552L63.27256947916666,62.79501883401227L63.59726885416667,63.302795602165176L63.64365447916667,53.08889041977079L63.71323291666666,53.5441527333078L63.82919697916667,68.717790010346L63.898775416666666,84.3248642222721L63.921968229166666,90.33098100284568L64.38582447916667,95.40353824770352L64.59455979166667,87.73481307313382L64.73371666666667,87.79117135218104L64.89606635416666,75.45170430666995L64.91925916666666,86.89265252784962L65.12799447916667,82.56907998106523L65.29034416666667,85.61022148717429L65.77739322916666,87.35016861312978L65.87016447916668,88.48096779080265L66.10209260416667,79.65045071537513L66.19486385416667,80.1369556098891L66.40359916666667,83.93372106490806L66.70510572916668,75.63672174416945L66.77468416666666,90.17985096337182L66.91384104166667,74.43058193422426L66.96022666666667,55.8118122953002L67.74878229166667,53.0569361625805L67.88793916666667,70.78835443131295L68.28221697916666,72.9983015076647L68.51414510416667,76.48099811651286L68.58372354166667,73.23012398587451L68.63010916666667,72.92525441471804L69.04757979166666,71.91483282461212L69.37227916666667,67.96325394281416L69.41866479166667,74.98751825313967L69.83613541666666,71.1285314596963L69.92890666666666,87.14622173531485L70.11444916666666,78.81994823589106L70.50872697916668,89.4638610313784L70.64788385416666,81.99720928850479L71.20451135416666,87.81548476804916L71.50601791666666,90.02146073692813L71.57559635416668,87.55736893483265L71.59878916666666,84.78177090923947L71.69156041666666,90.36143131995772L71.78433166666666,83.97221546616896L71.87710291666667,63.83186954764567L72.03945260416667,87.26205462043315L72.38734479166666,78.23281458988687L73.17590041666666,89.11911609157863L73.26867166666666,95.18234772196375L73.43102135416667,88.2269706601558L73.63975666666667,68.85432585922825L73.91807041666667,69.60989524393051L74.14999854166666,78.71634814184165L74.19638416666666,86.10804145956794L74.24276979166666,91.35589192285993L74.35873385416666,70.72943694814956L74.42831229166667,64.27979328766413L74.61385479166667,78.58910300812092L74.70662604166667,69.77665241766553L75.17048229166667,60.343094264320015L75.28644635416667,76.17189263036938L75.30963916666667,99.73823552329L75.35602479166667,97.53059123157654L75.42560322916665,95.57926919817446L75.51837447916665,94.19439661717126L75.54156729166667,94.53886369356933L75.70391697916668,107.0515488832559L75.77349541666666,95.00642081554919L75.88945947916667,68.360092113353L76.33012291666667,81.7883088385684L76.56205104166666,76.41035117838517L76.70120791666668,82.50212585290514L76.84036479166666,76.89268450832509L76.93313604166667,74.4469951349267L77.21144979166667,77.56565756069237L77.23464260416667,71.18392212430606L77.81446291666667,74.88548327946647L78.02319822916667,83.45604109683025L78.83494666666667,92.54117394398682L78.85813947916667,114.98450752801314L78.90452510416667,133.76106134359014L79.92500885416668,131.26048751416192L80.11055135416667,108.5042219671153L80.27290104166667,94.86570868686098L80.31928666666667,76.05353951570545L80.36567229166667,76.7523460299799L80.48163635416667,90.14042609638152L81.06145666666666,93.86978338304863L81.08464947916667,82.14616354789558L81.31657760416667,94.14419104865928L81.36296322916667,88.89495373136843L81.47892729166666,77.9418249915066L81.80362666666667,73.84884171426432L81.94278354166666,96.22637915575585L82.15151885416667,80.20577439286758L82.49941104166668,75.65123731028106L82.59218229166667,71.70082981902993L82.63856791666666,75.33882461260937L83.21838822916666,63.408156370348834L83.49670197916666,65.2848146290941L83.72863010416667,77.39926699706098L83.86778697916667,81.64237437670339L84.26206479166667,87.35544659867824L84.40122166666666,83.49092558249794L84.42441447916667,66.0271616269646L84.74911385416667,82.34933545884473L84.88827072916666,84.41462195096601L85.00423479166666,97.71692884074562L85.53766947916667,105.62193419043366L85.70001916666666,99.27453807773678L85.81598322916668,97.08806925167136L86.11748979166667,84.05625784128601L86.27983947916667,80.073935521422L86.62773166666668,73.08242329405437L86.90604541666667,81.51718545226271L86.97562385416667,82.37485991637718L87.30032322916666,83.16959215832239L88.11207166666667,85.21073814411453L88.13526447916666,78.78136949169331L88.15845729166666,72.19682584540661L88.57592791666667,73.28415553532008L88.92382010416667,70.26529419399479L90.03707510416668,57.981265826089285L90.24581041666667,95.71747684184494L90.45454572916667,86.6290581876265L90.59370260416667,93.92337760056418L91.08075166666666,84.3393697305045L91.12713729166667,74.22524628898628L91.15033010416667,68.00938925898745L92.24039229166668,59.92023453805848L92.42593479166668,72.7599896913409L92.95936947916667,90.93853943858383L93.16810479166666,73.70235599347254L93.26087604166666,75.1850567082661L93.35364729166666,97.31397492766962L93.63196104166666,85.72367121148457L93.70153947916667,74.17988838057722L93.88708197916667,90.8439272910417L93.95666041666667,88.98956789195903L94.51328791666666,102.04148960602508L94.60605916666665,93.69608608539237L94.65244479166667,102.97597089562016L95.30184354166666,86.39760592909575L95.83527822916666,83.1208882339711L96.18317041666666,103.14535749482599L96.36871291666668,90.39419127301865L96.48467697916666,81.05096415040785L96.60064104166666,73.2259919271344L96.73979791666667,89.9010388818666L97.11088291666667,108.97064606471571L97.52835354166668,109.59950532986947L97.55154635416666,101.49685827299497L97.71389604166667,102.65964664104305L97.78347447916667,91.7433691613836L98.34010197916666,101.36535178857822L98.40968041666667,122.25712481521236L98.57203010416667,91.00757795919579L98.64160854166666,78.09469600647446L98.66480135416667,69.83421887951945L98.71118697916667,81.41942201374682L98.73437979166665,78.65397689294046L99.31420010416667,99.27913837880624L99.52293541666666,100.75495846063335L100.07956291666667,103.58989203804997L100.26510541666667,75.84886999150673L100.58980479166667,80.87715539944506L100.61299760416667,65.33273168571196L101.00727541666666,61.125360065504324L101.67986697916668,63.91122067797447L101.72625260416666,77.2856385804907L101.95818072916667,80.42800241098972L102.35245854166668,75.48450110784871L102.46842260416666,70.82471159000218L102.97866447916667,89.79047148525126L103.16420697916666,76.24201780020834L103.41932791666667,91.69841975605274L103.46571354166666,83.95513263366097L103.62806322916667,99.29107106579228L103.76722010416667,90.38192260773707L103.92956979166667,95.12337551898797L104.06872666666666,85.67669163219354L104.13830510416668,73.03941433234344L104.53258291666666,66.99785758378107L104.81089666666666,108.12284266306159L104.88047510416666,83.15205612273928L105.41390979166665,94.25404632623142L105.46029541666667,103.30612866243808L105.59945229166667,101.32555708027533L105.69222354166668,104.79480751476682L106.06330854166667,128.1975574977517L106.45758635416666,137.0842337326598L106.92144260416666,125.67778030612423L107.33891322916666,97.7705004285476L107.38529885416668,80.14075438920864L107.43168447916666,107.89877705063947L107.50126291666666,125.00272112540327L107.57084135416667,122.65818586738061L107.96511916666667,107.55453134769886L108.22024010416666,105.44725082155873L108.54493947916667,103.45188244483955L109.28710947916666,105.45068680943305L109.84373697916668,126.43383005440981L109.93650822916668,96.62240397441838L109.98289385416666,83.47369323914324L110.12205072916667,89.0661729594771L110.19162916666667,109.02336466435811L110.23801479166666,118.97068452432288L110.44675010416667,102.24897336718166L110.60909979166667,107.61815523002578L110.91060635416667,101.78853534992949L111.09614885416667,100.86372644982585L111.39765541666667,111.22062264968066L111.44404104166667,114.78998291903204L111.51361947916668,103.91618701704425L111.88470447916667,82.78869376235063L112.00066854166667,64.91823792489086L112.04705416666667,80.22963789958783L112.27898229166667,78.2168984929265L112.37175354166666,82.96604378935942L113.04434510416667,91.85838108013425L113.16030916666666,79.040318183603L113.32265885416666,97.54306862622627L114.34314260416667,90.85241885823088L114.52868510416667,93.1743756618624L114.69103479166667,102.83967186013015L114.78380604166667,108.49520722984758L115.03892697916667,105.160173349139L115.17808385416666,91.27059810433207L115.31724072916667,105.53642502470866L115.82748260416668,117.1728275337461L116.08260354166667,95.70145179978866L116.19856760416667,96.82736773819838L116.40730291666667,102.98875325400297L116.43049572916668,104.05119171070254L116.70880947916667,107.79968582109923L116.96393041666667,98.75644372532554L117.03350885416666,90.61343395370115L118.35549916666666,68.48155249868555L118.47146322916667,67.703251186101L118.49465604166667,82.87243624632858L118.72658416666667,89.72340643468678L120.41965947916667,99.99383756198397L120.67478041666666,116.61772099422164L120.69797322916666,136.8661048560545L120.74435885416668,122.16183469707997L120.79074447916666,104.17620871314546L120.86032291666666,92.84723775535308L120.88351572916666,87.41277624696183L121.46333604166666,101.29613849597983L121.57930010416666,92.4748110120166L121.64887854166666,99.12612501053025L121.83442104166667,96.77150554220684L122.08954197916667,90.74411029553895L122.29827729166666,117.57837924800211L122.36785572916666,90.66528842831782L122.39104854166666,102.55580742588718L122.73894072916666,113.09552417416029L123.11002572916668,132.92894620310454L123.24918260416666,97.70721925384517L123.34195385416666,85.40931514910886L123.55068916666667,88.10469934947511L123.59707479166667,92.72108003143798L123.80581010416665,103.52816849615772L123.89858135416667,112.52976151029232L124.15370229166666,108.41842575383164L124.75671541666667,95.67866432375895L124.96545072916668,98.14336940114012L125.31334291666667,122.6258860663433L125.47569260416665,129.46573397134893L125.61484947916666,108.59380729565115L125.70762072916666,106.26828579645812L125.73081354166666,104.65809679830943L126.17147697916666,116.93700445654915L126.24105541666667,115.08154334165407L127.07599666666667,116.23190642796608L127.21515354166667,108.92914393307359L127.56304572916666,91.39251023984909L127.60943135416667,92.49204278026194L128.00370916666665,99.30596663495405L128.02690197916667,86.71237613880938L128.46756541666667,94.24697348907173L128.49075822916666,99.83560345074288L128.56033666666667,84.49223815381968L128.76907197916668,88.3080859648016L129.02419291666666,108.62038144033114L129.60401322916667,125.42985001898381L129.67359166666665,136.86710884867057L129.92871260416666,145.2933791702863L129.99829104166668,150.99479596530654L130.04467666666667,151.3774827427581L130.09106229166667,131.87016068142148L130.36937604166667,137.04691017533236L130.76365385416668,135.76162541428144L131.25070291666665,113.21088760208445L131.41305260416667,119.92943829245188L131.59859510416666,115.4610927697827L131.69136635416666,94.40662605981882L131.85371604166667,118.46420192373313L131.87690885416666,143.69768932135415L131.90010166666667,138.09543221158688L132.13202979166667,122.79565265275778L132.73504291666666,110.07760796128352L132.85100697916667,107.96425703751233L133.22209197916666,102.01452140085213L133.47721291666667,92.90380164666367L133.56998416666667,98.28608752181165L133.59317697916669,97.5930114608409L133.77871947916668,115.26641944059145L133.91787635416665,99.47021039848573L133.98745479166666,93.95851005867152L134.19619010416667,121.29758574101345L134.28896135416667,114.54066379507191L134.45131104166666,121.34365486884003L134.47450385416667,133.1835002790921L134.61366072916667,107.53815375632243L134.75281760416667,107.30292475501417L134.79920322916666,121.7655567328913L134.86878166666665,126.33810036663911L135.68053010416665,125.65530345728814L135.95884385416667,132.54368836099403L136.39950729166668,120.66689699181613L136.44589291666665,126.94728388600768L136.93294197916669,109.5056840217901L137.39679822916668,101.07894111375764L137.95342572916667,116.24069444120379L138.02300416666665,110.52570443022519L138.32451072916666,118.43782553594271L138.5100532291667,103.06891694021795L138.71878854166667,89.57570746393547L138.78836697916668,75.10473256857122L138.83475260416665,81.26905703992206L138.85794541666667,79.32059117585756L139.87842916666668,102.77521603363957L140.01758604166668,85.93735114728334L140.08716447916666,85.49492793080164L140.24951416666667,92.15142285345169L140.55102072916668,102.93762998770579L140.59740635416668,104.79362337226215L140.62059916666666,99.3845711638602L140.78294885416668,108.72559644282298L141.20041947916667,103.4238451856401L141.73385416666667,87.4092141090647L141.8498182291667,82.83851834886168L142.31367447916665,99.92245869608459L142.36006010416668,126.87976366979917L142.49921697916665,119.10078224362758L143.10223010416667,99.10405256761211L143.21819416666668,122.00953916080655L143.61247197916668,136.03067649941363L144.02994260416665,110.70069479430148L144.21548510416665,139.86094055822156L144.74891979166665,132.51210663229614L144.84169104166668,137.39757495349875L144.93446229166665,120.47885258928676L144.95765510416666,116.84165183982694L145.56066822916668,133.7284373014059L146.09410291666666,128.5033899717859L146.7666944791667,127.12392576773954L147.02181541666667,122.91745833539957L147.39290041666666,116.4135086010933L147.71759979166666,129.8533360261345L147.74079260416667,119.53987042061235L148.20464885416666,126.24662565202564L148.76127635416665,122.79272858030231L149.13236135416665,114.4035975058474L149.57302479166668,97.74244826791275L149.64260322916667,101.4362911805963L149.75856729166668,112.00347453745934L150.61670135416668,117.70810942645505L150.7790510416667,105.69878388402243L150.87182229166666,106.64927055929533L151.01097916666666,121.56586413916602L151.15013604166668,117.65517789206896L151.26610010416667,110.89186856080289L151.33567854166668,104.53900838928932L151.38206416666668,106.4274911846966L151.93869166666667,98.60685642041273L152.12423416666667,116.0063366763443L152.51851197916665,104.68880704120693L152.63447604166666,88.80216483995851L152.68086166666666,96.74518890336476L152.95917541666668,106.83913925144269L153.00556104166665,110.99589779647108L153.14471791666668,97.09174125356623L153.42303166666667,87.67916111566511L153.53899572916666,70.17375277291472L153.77092385416668,112.21352061516488L154.00285197916668,106.49909877351787L154.65225072916667,122.51659755451604L154.69863635416667,124.13097003783659L154.79140760416666,121.34641893676448L155.13929979166664,124.22202197057922L156.09020510416667,120.81566397275279L156.15978354166666,122.27602298692315L156.57725416666668,122.92266991398009L156.99472479166667,102.42172229445738L157.38900260416665,84.735909276943L157.4585810416667,88.96195907934943L157.57454510416667,112.30188148703836L157.69050916666666,124.08151890687145L158.10797979166665,131.76070974500175L158.13117260416666,138.74040938276767L158.52545041666667,113.71202082192133L158.59502885416666,106.52934971544286L158.75737854166667,120.62897861893856L159.38358447916664,109.48032616672442L159.42997010416667,103.4100783294292L159.59231979166668,120.15725686704229L160.00979041666668,132.80723658177317L160.21852572916666,119.53689016683737L160.42726104166667,137.3952622281542L160.65918916666666,122.07854306382117L160.91431010416667,113.95682874966964L161.00708135416667,93.06073039799513L161.0302741666667,95.31117075222478L161.47093760416666,87.80705965958681L161.58690166666668,118.83458278061534L161.63328729166665,122.5198815958594L161.72605854166667,129.05018930297467L161.93479385416666,129.76851339257584L162.35226447916665,135.97827318141952L162.81612072916667,134.0755555226212L162.93208479166668,121.25912527524261L163.14082010416666,126.94549332310459L163.2799769791667,130.81808510213915L163.30316979166668,127.64278633350028L163.39594104166665,114.799141572439L163.4655194791667,106.30290153892238L163.97576135416668,110.03132290882712L164.39323197916667,109.8014463331869L164.48600322916664,96.23926036277834L164.60196729166665,105.59468895387302L164.97305229166665,104.45901086683067L165.01943791666667,100.95936732026925L165.25136604166667,121.37864224274747L165.39052291666667,106.97339033222075L165.43690854166667,99.13064995250622L165.57606541666667,120.70370979572243L165.62245104166666,126.59237960973326L165.66883666666666,133.29547659396493L165.9471504166667,108.114657477375L165.99353604166666,118.15086930026779L166.03992166666666,130.91094447749953L166.57335635416666,129.2288999842292L166.78209166666667,140.71362729827675L166.85167010416666,142.39786403155398L167.22275510416668,151.09488548741385L167.47787604166666,141.6638204068282L167.52426166666666,136.01629517378444L167.6634185416667,121.25405269325994L167.96492510416667,109.66531491673722L168.08088916666668,118.55710490463223L168.24323885416666,132.02067216824318L168.3823957291667,121.03798458451526L168.68390229166667,133.55347968503537L169.2869154166667,143.18578554966862L169.82035010416666,129.13365272628562L169.91312135416666,129.43372663943344L169.93631416666665,131.6631693332694L170.09866385416666,135.852588642198L170.49294166666667,150.1128137901772L170.74806260416668,128.73509595843242L171.0031835416667,122.77553374083098L171.16553322916664,121.50374569005521L171.30469010416667,117.2413604969189L171.86131760416666,136.07548509087593L173.13692229166668,127.0488591697599L173.22969354166665,124.91514573256885L173.53120010416666,126.08785689449738L173.87909229166667,115.71714055881753L174.06463479166666,122.62697317806399L174.08782760416668,113.64810506467533L174.18059885416667,110.51279698350733L174.41252697916667,118.75388065897647L174.64445510416667,106.40990407897962L174.66764791666665,102.00129088183598L174.69084072916664,103.35601615202641L174.8763832291667,109.941350780083L175.34023947916666,100.23021551260544L175.89686697916665,118.18884113007303L176.05921666666666,108.24959328278014L176.12879510416667,109.03676234784196L176.36072322916667,102.5978911489395L176.56945854166665,119.41881014407562L176.6390369791667,101.54743575990729L176.87096510416666,115.1749534603389L176.98692916666667,121.70372955301L177.82187041666666,111.314044372431L178.03060572916667,142.07442431938145L178.07699135416667,146.54232899958785L178.16976260416666,142.21311720260917L178.30891947916666,119.0485093596514L178.37849791666665,119.36018219965312L178.54084760416666,125.71851334200869L178.72639010416665,115.21452910200699L178.79596854166667,109.26235202846495L178.98151104166666,128.36156801639538L179.07428229166666,121.91178517018881L179.16705354166666,124.31188982769919L179.70048822916667,131.47047648695153L179.79325947916666,136.62515988509085L179.95560916666665,118.27744860744608L180.04838041666667,107.01840313968742L180.30350135416666,96.2467563003163L180.58181510416668,111.41570911466243L180.95290010416667,125.26608295475936L181.53272041666665,117.20538723013102L181.88061260416666,111.68631415570555L182.20531197916665,117.91646561744673L182.39085447916665,131.69088538243093L182.57639697916665,134.07399274679256L182.71555385416667,112.03546292407646L182.73874666666666,109.42938764824467L183.34175979166668,121.21085539778467L183.66645916666667,140.61975763869515L184.24627947916667,128.5273263849749L184.64055729166665,127.0325780819615L184.91887104166668,126.36559467022185L184.98844947916666,106.81168247046804L185.12760635416666,134.51949735154358L185.54507697916665,119.97819880765468L185.59146260416665,107.9451893193828L186.00893322916667,118.83571703096075L186.10170447916664,121.11056603705788L186.58875354166668,109.33046521732753L186.68152479166667,107.45662118667092L186.8438744791667,112.40699387594294L187.14538104166667,136.02664581897398L187.28453791666666,145.29498926140388L187.60923729166666,145.9138720663638L187.88755104166665,130.9446390814931L188.23544322916666,134.67483276530214L188.4209857291667,129.7448486948258L188.44417854166667,122.31548541928805L188.9544204166667,123.26136934605529L189.04719166666666,120.205863431974L189.37189104166666,128.871131660869L189.65020479166668,122.49332963128703L189.67339760416667,124.04638321578392L189.83574729166668,123.97736430752208L190.16044666666664,130.7717731224771L190.29960354166667,125.30198866291497L190.46195322916665,130.14352023937494L190.50833885416665,129.7059896155488L190.7170741666667,122.85534196879216L190.76345979166666,114.77272994628996L190.78665260416668,128.00779797143608L191.22731604166665,123.5284142107181L191.29689447916667,120.40093074383812L191.50562979166668,127.69395947779704L191.8071363541667,114.07950762942724L192.36376385416668,121.12813441774426L192.73484885416667,150.14595306885943L192.98996979166665,132.71134923084205L193.40744041666667,130.95788986077088L193.63936854166667,147.10351840132577L193.66256135416666,150.47623633071242L193.80171822916665,121.70305274203096L193.96406791666666,137.3679729263465L194.0568391666667,151.29964667084698L194.08003197916668,133.12253305866054L194.10322479166666,123.81615464659765L194.61346666666668,114.93818193895954L194.63665947916667,122.51949386491378L194.72943072916667,146.2999484246611L194.77581635416666,164.29114672813648L194.98455166666668,151.4191107968917L195.07732291666665,139.98954661729516L195.74991447916665,153.25091974283805L195.77310729166666,158.73272530761687L195.98184260416667,146.65141558007792L196.05142104166666,152.82603901479482L196.21377072916667,136.95264580877927L196.44569885416666,123.34006275077046L196.46889166666665,120.08238855683432L196.51527729166668,129.21768371393455L196.63124135416666,131.46430842477187L196.77039822916666,115.719235308159L196.8631694791667,117.33509655904089L196.90955510416669,121.62213444299287L197.28064010416668,117.6874411272215L197.41979697916668,138.66767639203115L197.44298979166666,140.78109388758682L197.62853229166666,132.04414484268392L198.06919572916667,133.4287802253125L198.46347354166667,123.68109984600292L199.06648666666666,132.1888536942229L199.59992135416667,131.51475417210014L199.90142791666668,130.92044132467123L199.97100635416666,120.71054482409957L200.68998354166666,123.4188477227068L200.71317635416665,121.33088337117286L201.08426135416667,117.26443242748888L201.10745416666668,111.37328332734295L201.33938229166668,127.77402370734328L201.40896072916667,141.7109959504802L201.45534635416666,158.06335080515137L201.71046729166667,127.06953331023924L201.84962416666667,134.38948526019135L201.91920260416666,127.88555562755033L202.01197385416668,112.51488829291199L202.42944447916665,107.60851038358406L202.45263729166666,112.44400324858307L202.54540854166666,106.02092946074649L202.61498697916667,103.13350097478772L202.66137260416664,130.31811099136678L202.98607197916667,115.83785588315013L203.07884322916667,128.19689230186276L203.33396416666665,109.11018593348584L203.4035426041667,90.04203868411493L203.86739885416665,96.93693349184107L204.05294135416665,118.21538427723357L204.28486947916667,125.77454520257064L204.30806229166666,136.57499262447203L204.56318322916667,153.50336830112366L205.09661791666664,160.61875987227575L205.21258197916666,149.11545178518185L205.60685979166666,148.76297468439037L206.62734354166668,134.66570122298776L206.65053635416666,124.16721606765498L206.7433076041667,143.53093732186744L206.83607885416666,130.74157066338415L207.25354947916668,128.57906616206856L207.39270635416665,130.9129182128661L208.38999729166667,118.62289954832515L208.57553979166667,115.93567744261816L208.76108229166667,129.66712080578085L208.78427510416665,122.39095210993334L209.1785529166667,115.82036716439748L209.48005947916667,126.27096068560138L209.57283072916667,118.99018642722999L209.82795166666665,140.3753893221583L210.10626541666667,125.91832685501375L210.17584385416666,121.73579927462933L210.22222947916666,148.0680243645823L210.31500072916666,161.77053492514588L210.50054322916665,135.49343515186484L211.89211197916666,121.38937262981518L212.03126885416668,140.84655418091643L212.05446166666667,132.3619551068165L212.44873947916668,132.39136953625786L212.61108916666666,124.513509923659L213.14452385416666,116.73242602255482L213.2372951041667,112.34881871167741L213.49241604166667,111.72258460774374L213.56199447916666,118.11202473315207L213.95627229166666,114.9081454734362L214.09542916666666,115.90340374829515L214.39693572916667,145.21940018965088L214.86079197916666,166.81993753810693L215.06952729166667,143.11787637174112L215.44061229166667,137.46825412809835L215.48699791666667,132.93262346684924L215.69573322916668,121.96338969290247L215.9044685416667,136.6337869895696L216.09001104166668,124.15410886366365L216.55386729166665,130.58737521504872L216.60025291666668,132.14420949182224L216.66983135416666,128.8649316856939L216.71621697916666,132.63910229144562L216.85537385416666,142.82790351353924L217.13368760416668,144.17504548336765L217.15688041666667,134.73066724363386L217.31923010416668,140.34546760692248L217.38880854166666,143.73672399982246L217.50477260416667,139.81628237047457L217.6671222916667,145.5303921334664L217.71350791666666,145.74022685722832L218.89634135416668,137.7920151426573L219.15146229166666,149.38659443105337L219.22104072916667,162.76880175140548L219.33700479166666,167.90469901959332L219.70808979166665,183.48848286390444L219.82405385416666,178.23220740766573L219.87043947916666,159.6089105499461L220.1023676041667,157.31747714356632L220.19513885416666,157.30020407483607L220.28791010416668,140.53861975935482L220.49664541666667,153.57563721816172L220.51983822916668,157.23093668270366L220.63580229166666,143.19184219150696L220.72857354166666,130.2201612383661L220.75176635416665,123.63694507065634L221.09965854166666,125.13722769608034L221.81863572916666,145.8267540370818L222.09694947916668,131.48283190222955L222.25929916666666,138.9655020588182L222.37526322916668,139.70533257684366L222.69996260416664,143.22074913717063L222.90869791666668,146.21340559802502L223.2565901041667,134.30654296208655L223.51171104166667,118.45126029568449L223.67406072916665,126.19741373966662L223.69725354166667,137.1171327835949L223.90598885416665,136.0315989450593L224.78731572916666,135.49267266964793L224.85689416666668,140.77907932505533L224.90327979166668,135.97439087811426L224.97285822916666,122.23313718189782L224.99605104166665,114.58326441973438L225.08882229166667,116.87738380748026L225.83099229166666,119.8495454425692L226.15569166666666,103.44078263968703L226.7818976041667,110.97339986640505L226.92105447916666,109.63281608866626L227.01382572916668,128.743410051149L227.43129635416665,137.46169666545504L227.54726041666666,123.13177301941465L227.89515260416667,129.5443835595736L227.96473104166665,118.19847309228712L228.03430947916667,118.0934352042492L228.52135854166664,134.55742556346746L228.77647947916668,139.4913738256293L229.0779860416667,162.57637756381018L229.10117885416668,161.90314915486326L229.33310697916667,144.33202705090133L229.40268541666666,125.86874152961306L229.49545666666666,138.53914347733814L229.88973447916666,130.0047730126724L229.9361201041667,132.59380306236417L230.00569854166667,136.61288111110014L230.49274760416668,155.97303132474113L230.53913322916668,161.37269055998138L230.6550972916667,155.6712258777369L230.91021822916667,144.52906777151517L231.09576072916667,132.62808504157124L231.18853197916667,123.96526731522599L231.58280979166668,127.87165497226547L231.72196666666667,139.00513806392567L231.95389479166667,120.06614161521088L232.00028041666667,128.1415764486187L232.13943729166667,139.79644618960577L232.25540135416668,122.34981809218138L232.37136541666666,115.81976443624143L232.44094385416668,134.6963294869402L232.78883604166668,149.92500022207136L232.81202885416667,157.50922590228578L233.43823479166664,125.76101420958435L233.62377729166664,142.75956483983754L233.85570541666667,146.21593131723264L234.11082635416665,137.8858561688796L234.59787541666665,149.000831175693L234.99215322916666,163.0864040856648L235.01534604166665,170.10197253257564L235.7575160416667,148.0556744100483L235.78070885416668,140.30685793887565L235.91986572916667,151.81243713576188L237.12589197916665,159.59223660396685L237.17227760416668,156.7342672858664L237.3346272916667,148.2474450608509L237.40420572916668,141.1454931748162L237.56655541666666,144.99143843723834L238.19276135416666,116.56948182149826L238.67981041666667,133.50705446460302L238.9117385416667,144.39168545280964L239.2828235416667,146.0800680343811L239.32920916666666,141.26508305695677L239.37559479166666,130.15413741962328L239.49155885416667,120.76306480345855L240.23372885416666,108.6066642604931L240.34969291666667,151.4291493894257L240.60481385416665,131.5521355534552L240.62800666666666,125.54794331937781L240.65119947916665,113.1086214146003L240.72077791666666,122.87615490442425L241.09186291666666,135.25674396804516L241.71806885416666,143.57743009359564L241.78764729166667,135.9928244807179L242.2515035416667,141.5221430526886L242.39066041666666,124.55303757111508L242.41385322916665,118.47254512262509L243.01686635416667,129.846900486661L243.17921604166668,159.3845061062056L243.3415657291667,139.2888491105007L244.10692854166666,133.205974642692L244.17650697916665,127.91881900802731L244.61717041666668,123.85816312417674L244.64036322916667,133.99541087499438L244.84909854166665,148.99052624911772L245.01144822916666,135.68133090144823L245.08102666666667,135.24162164572732L245.24337635416668,131.68697242286123L245.31295479166667,115.6219283267636L245.75361822916665,116.45646418599958L245.82319666666666,114.95050059717107L246.07831760416667,129.67138029909853L246.33343854166668,117.73548229322867L246.56536666666668,129.68511444917937L246.61175229166665,129.56917337531817L246.63494510416666,114.15452221366743L246.70452354166667,122.49934678156959L247.26115104166666,127.37498236703746L247.37711510416668,139.859217172908L247.40030791666666,151.05323782327602L247.49307916666666,142.53956400133865L247.93374260416667,135.31467078910882L247.95693541666668,143.37574415437348L248.16567072916666,148.947331410837L248.35121322916666,153.41922053229322L248.62952697916668,150.18180987674896L249.55723947916667,153.07600677871054L249.76597479166665,135.20269070663062L249.78916760416666,131.06007832168345L249.92832447916666,136.61940072225812L249.97471010416666,132.25617206482457L250.18344541666667,142.0976725839875L250.99519385416667,127.62835666318546L251.64459260416666,136.79201643931754L251.71417104166665,150.25452359955244L251.7837494791667,162.47191734576663L251.99248479166667,150.313461457875L252.6418835416667,150.09147386264004L253.19851104166668,155.93814863032813L253.43043916666667,146.3178342465563L254.70604385416667,162.70703897261637L254.84520072916666,158.1539777170659L254.9379719791667,130.1044645721341L255.00755041666667,117.44309912291916L255.26267135416666,114.75132105212062L255.63375635416668,140.40674813664344L255.68014197916668,147.01598506973014L255.7961060416667,132.34272718075414L256.5150832291667,145.6579792192191L256.6310472916667,153.2495178324348L256.65424010416666,152.4089469970683L256.7006257291667,134.06766014465214L256.9789394791667,153.1009515402825L257.02532510416665,153.38932626474568L257.30363885416665,159.32635653155248L257.5355669791667,150.25828401170492L257.69791666666663,144.98931977225732" style="fill: none;" fill="none"></path></g></g></g></g><g opacity="0.2"><g><g><g><path stroke="rgb(255, 112, 67)" stroke-width="2px" d="M27.09178197916667,-22.06257762908936L27.300517291666665,20.356782531738276L27.671602291666666,-43.103237915039045L27.717987916666665,-37.18415222167968L28.738471666666666,19.884884262084967L28.854435729166667,-45.80546150207519L29.457448854166667,-5.833909034729004L29.61979854166667,13.155421829223627L29.758955416666666,14.03233966827392L30.570703854166666,46.90661373138428L30.617089479166665,-6.970306777954107L30.802631979166666,-19.787587738037104L31.289681041666665,40.514954566955566L31.47522354166667,2.242377662658697L31.939079791666668,31.92196998596191L33.191491666666664,3.0491420745849496L33.214684479166664,11.219349288940435L33.608962291666664,55.941720199584964L33.67854072916666,36.82170410156249L33.74811916666667,46.54247760772705L34.09601135416666,35.726088523864746L34.16558979166667,-13.438398742675787L34.18878260416667,9.780630111694336L34.420710729166665,59.150783729553225L34.861374166666664,18.08533744812013L35.34842322916667,-7.019022560119623L35.74270104166666,42.62205562591552L35.85866510416667,29.104455757141125L36.484871041666665,9.395528984069813L36.71679916666667,49.603975868225106L36.855956041666666,63.97587432861327L37.01830572916667,16.134207916259754L37.04149854166667,-2.269318199157709L37.806861354166664,47.43512763977051L37.85324697916666,59.299631881713864L38.131560729166665,51.46736297607423L38.29391041666667,29.635940551757812L38.31710322916667,19.265454483032215L38.36348885416667,55.19940376281738L38.43306729166667,41.988615417480474L38.479452916666666,78.93040409088134L38.75776666666667,-14.998586654663086L38.989694791666665,39.01695270538329L39.98698572916667,84.65337753295898L40.172528229166666,55.882707595825195L40.35807072916666,39.894343185424816L40.566806041666666,73.19169845581054L40.86831260416667,104.48772296905517L40.96108385416667,67.66449966430663L41.16981916666667,10.255533027648937L41.26259041666667,84.89931964874268L41.30897604166667,71.60895881652833L41.35536166666667,92.0387643814087L41.51771135416667,3.0897554397583065L41.63367541666666,34.10125007629395L41.68006104166667,64.17276306152344L41.79602510416667,42.49056015014648L41.842410729166666,30.6118091583252L41.935181979166664,75.97555389404296L42.02795322916666,52.002156257629395L42.16711010416667,38.61878643035888L42.19030291666667,34.71902561187744L42.723737604166665,39.674092483520496L42.81650885416666,30.217221450805653L43.58187166666667,55.4293773651123L43.74422135416666,42.67097396850585L43.88337822916667,81.7891731262207L44.20807760416667,65.20852203369141L44.30084885416667,37.07402687072755L44.46319854166667,74.25814533233643L44.50958416666667,73.69013214111328L44.69512666666667,15.144902801513666L45.01982604166666,66.82306365966797L45.274946979166664,22.658949279785162L45.34452541666667,6.256922721862793L45.55326072916667,69.97328338623048L45.73880322916667,18.317404174804693L45.94753854166667,59.39470024108887L45.97073135416667,76.26015129089355L46.109888229166664,81.50913333892822L46.13308104166667,50.56434860229491L46.24904510416666,78.77504024505616L46.66651572916667,18.58218441009521L46.73609416666666,40.42964286804198L46.944829479166664,82.69130973815918L47.94212041666667,93.68230590820312L48.081277291666666,53.774256134033195L48.15085572916667,30.94974746704102L48.19724135416667,30.387034606933582L48.29001260416667,50.2050064086914L48.42916947916667,79.56664638519287L48.54513354166667,46.17894916534425L48.77706166666667,102.01094913482666L48.916218541666666,88.14906406402588L49.03218260416667,48.21917152404785L49.26411072916667,21.465733337402355L50.238208854166665,66.47979125976563L50.33098010416666,48.26586170196532L50.35417291666667,25.841983795166016L50.37736572916666,51.09006042480469L50.79483635416667,64.79968757629395L51.09634291666667,59.53196868896485L51.397849479166666,81.56696434020996L52.00086260416666,120.30144653320312L52.27917635416667,74.43143577575684L52.53429729166666,32.57478847503663L52.60387572916667,17.595445060729986L52.673454166666666,73.63388786315919L53.137310416666665,119.6779655456543L53.27646729166666,49.898633766174314L53.43881697916667,77.14068145751953L53.577973854166665,89.2645305633545L53.949058854166665,100.8111499786377L54.018637291666664,59.805695343017575L54.27375822916667,54.21867370605469L54.343336666666666,69.01756954193115L54.412915104166665,37.282394027709955L54.43610791666667,69.76120262145996L55.54936291666667,72.73431701660157L55.618941354166665,44.77267341613771L55.688519791666664,15.791003036499035L55.71171260416667,50.490481567382815L56.22195447916666,39.9764476776123L56.500268229166664,-1.5365558624267521L56.73219635416667,122.21614894866943L56.824967604166666,76.51861839294433L57.40478791666666,29.254046630859364L57.42798072916667,42.292050933837885L57.683101666666666,57.66453037261964L57.86864416666667,71.83049240112304L58.00780104166667,73.35992488861085L58.74997104166667,94.12868156433106L58.84274229166667,71.99993419647217L59.422562604166664,71.79771137237549L59.793647604166665,84.07986145019531L59.816840416666665,117.02469406127929L60.164732604166666,83.57538471221925L60.257503854166664,21.55178775787354L60.628588854166665,67.97461967468261L60.651781666666665,98.45739784240723L61.16202354166666,72.69110412597657L61.27798760416667,51.112915992736816L61.393951666666666,31.51100864410401L61.463530104166665,74.72285270690918L61.57949416666667,82.39975776672362L61.64907260416667,74.23049583435058L61.927386354166664,90.97481575012208L62.11292885416667,86.98430786132813L62.275278541666665,51.12169361114502L62.43762822916666,74.4947359085083L62.646363541666666,111.09716835021973L62.739134791666665,75.75466175079346L62.785520416666664,70.32381420135498L62.83190604166666,71.99162921905518L62.90148447916667,64.42704391479492L63.063834166666666,44.47720527648926L63.27256947916666,66.35001754760742L63.59726885416667,64.06446075439453L63.64365447916667,37.76803264617919L63.71323291666666,54.227046203613284L63.82919697916667,91.47824592590332L63.898775416666666,107.73547554016113L63.921968229166666,99.34015617370605L64.38582447916667,103.01237411499024L64.59455979166667,76.2317253112793L64.73371666666667,87.87570877075196L64.89606635416666,56.94250373840332L64.91925916666666,104.05407485961913L65.12799447916667,76.08372116088867L65.29034416666667,90.17193374633788L65.77739322916666,89.96008930206298L65.87016447916668,90.177166557312L66.10209260416667,66.4046751022339L66.19486385416667,80.86671295166015L66.40359916666667,89.62886924743653L66.70510572916668,63.19122276306153L66.77468416666666,111.99454479217529L66.91384104166667,50.80667839050294L66.96022666666667,27.883657836914068L67.74878229166667,48.92462196350098L67.88793916666667,97.38548183441162L68.28221697916666,76.31322212219239L68.51414510416667,81.70504302978516L68.58372354166667,68.353812789917L68.63010916666667,72.4679500579834L69.04757979166666,70.39920043945312L69.37227916666667,62.035885620117185L69.41866479166667,85.52391471862792L69.83613541666666,65.34005126953126L69.92890666666666,111.17275714874268L70.11444916666666,66.33053798675537L70.50872697916668,105.42973022460937L70.64788385416666,70.79723167419434L71.20451135416666,96.54289798736572L71.50601791666666,93.33042469024659L71.57559635416668,83.86123123168944L71.59878916666666,80.61837387084961L71.69156041666666,98.73092193603516L71.78433166666666,74.38839168548584L71.87710291666667,33.621350669860846L72.03945260416667,122.40733222961427L72.38734479166666,64.68895454406739L73.17590041666666,105.44856834411621L73.26867166666666,104.2771951675415L73.43102135416667,77.79390506744384L73.63975666666667,39.795358657836914L73.91807041666667,70.74324932098388L74.14999854166666,92.3760274887085L74.19638416666666,97.19558143615723L74.24276979166666,99.22766761779785L74.35873385416666,39.78975448608398L74.42831229166667,54.60532779693604L74.61385479166667,100.05306758880616L74.70662604166667,56.55797653198242L75.17048229166667,46.19275703430176L75.28644635416667,99.91509017944335L75.30963916666667,135.0877498626709L75.35602479166667,94.21912479400635L75.42560322916665,92.65228614807128L75.51837447916665,92.11708774566651L75.54156729166667,95.05556430816651L75.70391697916668,125.82057666778564L75.77349541666666,76.93872871398925L75.88945947916667,28.390599060058605L76.33012291666667,101.93063392639161L76.56205104166666,68.34341468811034L76.70120791666668,91.63978786468506L76.84036479166666,68.47852249145508L76.93313604166667,70.77846107482911L77.21144979166667,82.24365119934082L77.23464260416667,61.611318969726554L77.81446291666667,80.43782501220703L78.02319822916667,96.31187782287597L78.83494666666667,106.16887321472169L78.85813947916667,148.64950790405274L78.90452510416667,161.92589206695556L79.92500885416668,127.50962677001954L80.11055135416667,74.36982364654541L80.27290104166667,74.40793876647949L80.31928666666667,47.83528575897216L80.36567229166667,77.80055580139161L80.48163635416667,110.22254619598388L81.06145666666666,99.46381931304931L81.08464947916667,64.56073379516602L81.31657760416667,112.14123229980468L81.36296322916667,81.02109775543214L81.47892729166666,61.51213188171387L81.80362666666667,67.70936679840088L81.94278354166666,129.79268531799318L82.15151885416667,56.174867248535165L82.49941104166668,68.81943168640136L82.59218229166667,65.77521858215333L82.63856791666666,80.7958168029785L83.21838822916666,45.51215400695801L83.49670197916666,68.09980201721191L83.72863010416667,95.57094554901123L83.86778697916667,88.007035446167L84.26206479166667,95.92505493164063L84.40122166666666,77.69414405822754L84.42441447916667,39.83151569366456L84.74911385416667,106.83259620666504L84.88827072916666,87.51255168914794L85.00423479166666,117.67038917541504L85.53766947916667,117.47944221496581L85.70001916666666,89.75344390869141L85.81598322916668,93.80836601257325L86.11748979166667,64.50854072570802L86.27983947916667,74.10045204162599L86.62773166666668,62.59515495300293L86.90604541666667,94.1693286895752L86.97562385416667,83.66137161254882L87.30032322916666,84.36169052124023L88.11207166666667,88.27245712280273L88.13526447916666,69.13731651306152L88.15845729166666,62.320010375976565L88.57592791666667,74.91515007019042L88.92382010416667,65.73700218200683L90.03707510416668,39.55522327423097L90.24581041666667,152.32179336547853L90.45454572916667,72.99643020629883L90.59370260416667,104.8648567199707L91.08075166666666,69.96335792541504L91.12713729166667,59.05406112670899L91.15033010416667,58.685603713989266L92.24039229166668,47.78650245666503L92.42593479166668,92.01962242126464L92.95936947916667,118.20636405944825L93.16810479166666,47.84808082580565L93.26087604166666,77.40910778045655L93.35364729166666,130.5073522567749L93.63196104166666,68.33821563720703L93.70153947916667,56.86421413421631L93.88708197916667,115.83998565673829L93.95666041666667,86.20802879333496L94.51328791666666,121.61937217712403L94.60605916666665,81.17798080444335L94.65244479166667,116.89579811096192L95.30184354166666,61.53005847930909L95.83527822916666,78.20581169128418L96.18317041666666,133.1820613861084L96.36871291666668,71.26744194030762L96.48467697916666,67.0361234664917L96.60064104166666,61.48853359222413L96.73979791666667,114.91360931396486L97.11088291666667,137.57505683898927L97.52835354166668,110.5427942276001L97.55154635416666,89.3428876876831L97.71389604166667,104.40382919311523L97.78347447916667,75.36895294189453L98.34010197916666,115.7983257293701L98.40968041666667,153.59478435516357L98.57203010416667,44.13325767517091L98.64160854166666,58.725373077392575L98.66480135416667,57.44350318908691L98.71118697916667,98.79722671508789L98.73437979166665,74.50580921173095L99.31420010416667,130.216880607605L99.52293541666666,102.96868858337402L100.07956291666667,107.8422924041748L100.26510541666667,34.237336921691906L100.58980479166667,88.41958351135254L100.61299760416667,42.016096115112305L101.00727541666666,54.814302635192874L101.67986697916668,68.09001159667969L101.72625260416666,97.34726543426514L101.95818072916667,85.14154815673828L102.35245854166668,68.0692491531372L102.46842260416666,63.83502731323243L102.97866447916667,118.239111328125L103.16420697916666,55.91933727264404L103.41932791666667,114.88302268981934L103.46571354166666,72.34020195007325L103.62806322916667,122.29497871398925L103.76722010416667,77.0181999206543L103.92956979166667,102.23555488586426L104.06872666666666,71.50666580200196L104.13830510416668,54.08349838256835L104.53258291666666,57.93552246093749L104.81089666666666,169.81032028198243L104.88047510416666,45.69587631225585L105.41390979166665,110.90703163146972L105.46029541666667,116.88425216674804L105.59945229166667,98.35469970703124L105.69222354166668,109.99868316650391L106.06330854166667,163.301682472229L106.45758635416666,150.41424808502197L106.92144260416666,108.5681001663208L107.33891322916666,55.90958061218261L107.38529885416668,53.69613533020019L107.43168447916666,149.53581104278564L107.50126291666666,150.65863723754882L107.57084135416667,119.14138298034669L107.96511916666667,84.89904956817627L108.22024010416666,102.28633003234863L108.54493947916667,100.45882987976074L109.28710947916666,108.44889335632324L109.84373697916668,157.908544921875L109.93650822916668,51.90526485443115L109.98289385416666,63.75062713623048L110.12205072916667,97.45489253997803L110.19162916666667,138.9591522216797L110.23801479166666,133.89166431427003L110.44675010416667,77.16640663146973L110.60909979166667,115.67192802429199L110.91060635416667,93.04410552978516L111.09614885416667,99.47651309967041L111.39765541666667,126.7559669494629L111.44404104166667,120.14402332305909L111.51361947916668,87.60549316406251L111.88470447916667,51.097453880310056L112.00066854166667,38.112554168701166L112.04705416666667,103.1967378616333L112.27898229166667,75.19778938293457L112.37175354166666,90.08976173400879L113.04434510416667,105.19688701629639L113.16030916666666,59.81322383880615L113.32265885416666,125.29719429016114L114.34314260416667,80.81644420623779L114.52868510416667,96.65731086730958L114.69103479166667,117.33761615753173L114.78380604166667,116.97851028442383L115.03892697916667,100.15762252807617L115.17808385416666,70.43623523712158L115.31724072916667,126.93516540527344L115.82748260416668,134.62743129730225L116.08260354166667,63.49438819885255L116.19856760416667,98.51624164581298L116.40730291666667,112.23083152770997L116.43049572916668,105.64484939575195L116.70880947916667,113.42242698669435L116.96393041666667,85.19158058166504L117.03350885416666,78.39891929626465L118.35549916666666,35.28373031616212L118.47146322916667,66.53579921722412L118.49465604166667,105.62621383666992L118.72658416666667,99.99986171722412L120.41965947916667,115.39948425292968L120.67478041666666,141.5535461425781L120.69797322916666,167.23868064880372L120.74435885416668,100.10542945861816L120.79074447916666,77.19776973724366L120.86032291666666,75.85378131866456L120.88351572916666,79.26108398437499L121.46333604166666,122.12118186950684L121.57930010416666,79.24281978607178L121.64887854166666,109.10309600830078L121.83442104166667,93.23957633972168L122.08954197916667,81.70301742553711L122.29827729166666,157.82978267669677L122.36785572916666,50.2956521987915L122.39104854166666,120.3915859222412L122.73894072916666,128.90509929656983L123.11002572916668,162.67907924652098L123.24918260416666,44.874628829956066L123.34195385416666,66.96245899200439L123.55068916666667,92.14777565002441L123.59707479166667,99.64565105438233L123.80581010416665,119.7388011932373L123.89858135416667,126.03215103149415L124.15370229166666,102.25142211914063L124.75671541666667,76.5690221786499L124.96545072916668,101.84042701721191L125.31334291666667,159.34966106414794L125.47569260416665,139.72550582885742L125.61484947916666,77.28591728210449L125.70762072916666,102.78000354766846L125.73081354166666,102.24281330108643L126.17147697916666,135.35536594390868L126.24105541666667,112.29835166931153L127.07599666666667,117.95745105743407L127.21515354166667,97.97500019073486L127.56304572916666,65.0875597000122L127.60943135416667,94.14134159088135L128.00370916666665,109.52685241699218L128.02690197916667,67.82199039459228L128.46756541666667,105.54886951446534L128.49075822916666,108.2185483932495L128.56033666666667,61.47719020843506L128.76907197916668,94.03185768127442L129.02419291666666,139.0888246536255L129.60401322916667,150.6440528869629L129.67359166666665,154.02299709320067L129.92871260416666,157.93278465270996L129.99829104166668,159.54692115783692L130.04467666666667,151.95151290893554L130.09106229166667,102.6091775894165L130.36937604166667,144.81203441619874L130.76365385416668,133.83369827270508L131.25070291666665,79.38478088378906L131.41305260416667,130.00726432800292L131.59859510416666,108.75857448577881L131.69136635416666,62.824925994873055L131.85371604166667,154.5505657196045L131.87690885416666,181.54792041778563L131.90010166666667,129.69204654693604L132.13202979166667,99.84598331451416L132.73504291666666,91.00054092407227L132.85100697916667,104.79423065185547L133.22209197916666,93.08991794586181L133.47721291666667,79.23772201538087L133.56998416666667,106.3595163345337L133.59317697916669,96.55339736938477L133.77871947916668,141.77653141021727L133.91787635416665,75.77589683532715L133.98745479166666,85.6909595489502L134.19619010416667,162.30619926452636L134.28896135416667,104.40528087615967L134.45131104166666,131.5481414794922L134.47450385416667,150.9432683944702L134.61366072916667,69.07013397216797L134.75281760416667,106.95008125305176L134.79920322916666,143.45950469970703L134.86878166666665,133.19691581726073L135.68053010416665,124.63110809326173L135.95884385416667,142.87626571655272L136.39950729166668,102.85170993804931L136.44589291666665,136.36786422729492L136.93294197916669,83.34328422546388L137.39679822916668,88.43882675170899L137.95342572916667,138.98332443237305L138.02300416666665,101.95321941375732L138.32451072916666,130.30600719451905L138.5100532291667,80.01555404663087L138.71878854166667,69.33589324951173L138.78836697916668,53.39827022552491L138.83475260416665,90.51554374694824L138.85794541666667,76.39789237976073L139.87842916666668,137.9571533203125L140.01758604166668,60.680553817749015L140.08716447916666,84.8312931060791L140.24951416666667,102.13616523742675L140.55102072916668,119.1169406890869L140.59740635416668,107.57761344909667L140.62059916666666,91.27099285125732L140.78294885416668,122.7371343612671L141.20041947916667,95.47121829986573L141.73385416666667,63.38726749420165L141.8498182291667,75.98247470855712L142.31367447916665,125.54836921691896L142.36006010416668,167.3157211303711L142.49921697916665,107.43231010437012L143.10223010416667,69.10895805358886L143.21819416666668,156.36776905059816L143.61247197916668,157.06238250732423L144.02994260416665,72.70572223663329L144.21548510416665,183.60130920410157L144.74891979166665,121.48885574340821L144.84169104166668,144.72577743530275L144.93446229166665,95.10076904296875L144.95765510416666,111.3858507156372L145.56066822916668,159.05861549377443L146.09410291666666,120.66581897735597L146.7666944791667,125.05472946166992L147.02181541666667,116.60775718688964L147.39290041666666,106.65758399963379L147.71759979166666,150.0130771636963L147.74079260416667,104.06967201232911L148.20464885416666,136.3067584991455L148.76127635416665,117.6118829727173L149.13236135416665,101.81990089416504L149.57302479166668,72.75072441101075L149.64260322916667,106.97705554962158L149.75856729166668,127.8542495727539L150.61670135416668,126.26506175994874L150.7790510416667,87.68479557037354L150.87182229166666,108.07500057220459L151.01097916666666,143.94075450897216L151.15013604166668,111.78914852142334L151.26610010416667,100.74690456390381L151.33567854166668,95.00971813201905L151.38206416666668,109.26021537780761L151.93869166666667,86.87590427398682L152.12423416666667,142.1055570602417L152.51851197916665,87.71251258850099L152.63447604166666,64.97220153808594L152.68086166666666,108.65972499847412L152.95917541666668,121.98006477355958L153.00556104166665,117.23103561401368L153.14471791666668,76.23550643920898L153.42303166666667,73.56029090881349L153.53899572916666,43.91564025878907L153.77092385416668,175.27317237854004L154.00285197916668,97.92746601104736L154.65225072916667,146.54284572601318L154.69863635416667,126.55252876281739L154.79140760416666,117.16959228515626L155.13929979166664,128.53542652130128L156.09020510416667,115.7061269760132L156.15978354166666,124.4665615081787L156.57725416666668,123.89264030456542L156.99472479166667,71.67030086517333L157.38900260416665,58.20718975067139L157.4585810416667,95.30103378295898L157.57454510416667,147.31176509857178L157.69050916666666,141.7509750366211L158.10797979166665,143.27949600219728L158.13117260416666,149.20995883941652L158.52545041666667,76.16943798065186L158.59502885416666,95.75534305572509L158.75737854166667,141.77842197418212L159.38358447916664,92.75734748840333L159.42997010416667,94.30470657348633L159.59231979166668,145.2780246734619L160.00979041666668,151.78220615386962L160.21852572916666,99.6313705444336L160.42726104166667,164.1828203201294L160.65918916666666,99.10346431732178L160.91431010416667,101.77425727844238L161.00708135416667,61.71658287048341L161.0302741666667,98.68683128356933L161.47093760416666,76.55089302062989L161.58690166666668,165.3758674621582L161.63328729166665,128.04782981872557L161.72605854166667,138.84565086364745L161.93479385416666,130.84599952697755L162.35226447916665,145.29291286468506L162.81612072916667,131.22147903442382L162.93208479166668,102.0344799041748L163.14082010416666,135.47504539489745L163.2799769791667,136.6269727706909L163.30316979166668,122.87983818054198L163.39594104166665,95.53367443084717L163.4655194791667,93.55854148864746L163.97576135416668,115.62395496368407L164.39323197916667,109.45663146972656L164.48600322916664,75.89598140716554L164.60196729166665,119.62783184051514L164.97305229166665,102.75549373626708L165.01943791666667,95.70990200042725L165.25136604166667,152.00755462646484L165.39052291666667,85.36551246643067L165.43690854166667,87.36653938293456L165.57606541666667,153.06329956054688L165.62245104166666,135.42538433074952L165.66883666666666,143.3501220703125L165.9471504166667,70.34342880249024L165.99353604166666,133.20518703460692L166.03992166666666,150.05105724334717L166.57335635416666,126.70583324432374L166.78209166666667,157.94071826934814L166.85167010416666,144.92421913146973L167.22275510416668,164.1404176712036L167.47787604166666,127.51722278594971L167.52426166666666,127.54500732421874L167.6634185416667,99.11068897247314L167.96492510416667,92.28220825195312L168.08088916666668,131.8947898864746L168.24323885416666,152.21602306365966L168.3823957291667,104.56395320892334L168.68390229166667,152.32672233581542L169.2869154166667,157.63424434661866L169.82035010416666,108.05545349121094L169.91312135416666,129.88383750915528L169.93631416666665,135.00733337402343L170.09866385416666,142.13671760559083L170.49294166666667,171.503151512146L170.74806260416668,96.66851921081543L171.0031835416667,113.8361904144287L171.16553322916664,119.5960636138916L171.30469010416667,110.84778270721435L171.86131760416666,164.32667198181153L173.13692229166668,113.50892028808593L173.22969354166665,121.71457557678224L173.53120010416666,127.84692363739015L173.87909229166667,100.16106605529785L174.06463479166666,132.9917221069336L174.08782760416668,100.17980289459229L174.18059885416667,105.80983486175538L174.41252697916667,131.11550617218018L174.64445510416667,87.89393920898438L174.66764791666665,95.3883710861206L174.69084072916664,105.388104057312L174.8763832291667,119.81935272216796L175.34023947916666,85.66351261138915L175.89686697916665,145.1267795562744L176.05921666666666,93.34072151184083L176.12879510416667,110.21751594543457L176.36072322916667,92.93958435058593L176.56945854166665,144.65018863677977L176.6390369791667,74.7403741836548L176.87096510416666,135.61623001098633L176.98692916666667,131.4968936920166L177.82187041666666,95.7295166015625L178.03060572916667,188.21499423980714L178.07699135416667,153.24418601989746L178.16976260416666,135.7192995071411L178.30891947916666,84.30159759521484L178.37849791666665,119.82769145965577L178.54084760416666,135.256010055542L178.72639010416665,99.4585527420044L178.79596854166667,100.33408641815186L178.98151104166666,157.01039199829103L179.07428229166666,112.2371109008789L179.16705354166666,127.91204681396485L179.70048822916667,142.20835647583007L179.79325947916666,144.3571849822998L179.95560916666665,90.75588169097901L180.04838041666667,90.12983493804931L180.30350135416666,80.08928604125977L180.58181510416668,134.16913833618165L180.95290010416667,146.04164371490478L181.53272041666665,105.11434364318848L181.88061260416666,103.40770454406739L182.20531197916665,127.2616928100586L182.39085447916665,152.35251502990724L182.57639697916665,137.64865379333497L182.71555385416667,78.97766819000243L182.73874666666666,105.52027473449706L183.34175979166668,138.88305702209473L183.66645916666667,169.73311100006103L184.24627947916667,110.38867950439453L184.64055729166665,124.79045562744142L184.91887104166668,125.3651195526123L184.98844947916666,77.4808141708374L185.12760635416666,176.08121967315674L185.54507697916665,98.16625099182129L185.59146260416665,89.8956750869751L186.00893322916667,135.17150859832765L186.10170447916664,124.52283954620361L186.58875354166668,91.66031398773194L186.68152479166667,104.64585514068604L186.8438744791667,119.83255290985107L187.14538104166667,171.4561237335205L187.28453791666666,159.19750442504883L187.60923729166666,146.84219627380372L187.88755104166665,108.49078960418701L188.23544322916666,140.27012329101564L188.4209857291667,122.34987258911133L188.44417854166667,111.17144050598145L188.9544204166667,124.68019523620606L189.04719166666666,115.62260456085204L189.37189104166666,141.86903400421141L189.65020479166668,112.92662658691407L189.67339760416667,126.3759635925293L189.83574729166668,123.8738359451294L190.16044666666664,140.96338634490968L190.29960354166667,117.09731197357178L190.46195322916665,137.40581760406494L190.50833885416665,129.04969367980956L190.7170741666667,112.57937049865723L190.76345979166666,102.64881191253662L190.78665260416668,147.86040000915528L191.22731604166665,116.80933856964111L191.29689447916667,115.70970554351806L191.50562979166668,138.63350257873535L191.8071363541667,93.65782985687255L192.36376385416668,131.70107460021973L192.73484885416667,193.67268104553222L192.98996979166665,106.55944347381592L193.40744041666667,128.32770080566405L193.63936854166667,171.32196121215821L193.66256135416666,155.53531322479247L193.80171822916665,78.5432773590088L193.96406791666666,160.86535320281982L194.0568391666667,172.19715728759766L194.08003197916668,105.85686264038085L194.10322479166666,109.85658702850341L194.61346666666668,101.62122287750245L194.63665947916667,133.89146175384522L194.72943072916667,181.97063026428222L194.77581635416666,191.2779441833496L194.98455166666668,132.1110569000244L195.07732291666665,122.8452003479004L195.74991447916665,173.14297943115236L195.77310729166666,166.95543365478517L195.98184260416667,128.52945098876953L196.05142104166666,162.0879741668701L196.21377072916667,113.14255599975587L196.44569885416666,102.92118816375732L196.46889166666665,115.19587726593016L196.51527729166668,142.92062644958497L196.63124135416666,134.83424549102784L196.77039822916666,92.10162563323975L196.8631694791667,119.75888843536376L196.90955510416669,128.0526912689209L197.28064010416668,111.78540115356445L197.41979697916668,170.1380292892456L197.44298979166666,143.9512201309204L197.62853229166666,118.93872127532958L198.06919572916667,135.50573329925538L198.46347354166667,109.05957927703858L199.06648666666666,144.95048446655272L199.59992135416667,130.50360488891602L199.90142791666668,130.02897205352784L199.97100635416666,105.39570007324218L200.68998354166666,127.48130207061769L200.71317635416665,118.19893684387208L201.08426135416667,111.1647560119629L201.10745416666668,102.53655967712402L201.33938229166668,152.37513427734376L201.40896072916667,162.61645431518554L201.45534635416666,182.5918830871582L201.71046729166667,80.5788070678711L201.84962416666667,145.36941318511964L201.91920260416666,118.12966117858886L202.01197385416668,89.45888729095459L202.42944447916665,100.24894351959229L202.45263729166666,119.69724254608155L202.54540854166666,96.3863187789917L202.61498697916667,98.8023582458496L202.66137260416664,171.09502601623535L202.98607197916667,94.11747322082519L203.07884322916667,146.73544692993164L203.33396416666665,80.48012638092041L203.4035426041667,61.439817810058585L203.86739885416665,107.27927570343017L204.05294135416665,150.13306045532227L204.28486947916667,137.11328659057617L204.30806229166666,152.77566375732422L204.56318322916667,178.89593181610107L205.09661791666664,171.2918472290039L205.21258197916666,131.86048965454103L205.60685979166666,148.23425903320313L206.62734354166668,113.5197910308838L206.65053635416666,108.41948833465577L206.7433076041667,172.57651920318602L206.83607885416666,111.55752067565918L207.25354947916668,125.33530941009522L207.39270635416665,134.4136962890625L208.38999729166667,100.18787155151367L208.57553979166667,111.90484428405762L208.76108229166667,150.2642858505249L208.78427510416665,111.47669906616211L209.1785529166667,105.96448974609375L209.48005947916667,141.94685096740722L209.57283072916667,108.06902503967285L209.82795166666665,172.45319366455078L210.10626541666667,104.23273315429688L210.17584385416666,115.46200790405274L210.22222947916666,187.5663619995117L210.31500072916666,182.3243007659912L210.50054322916665,96.07778549194336L211.89211197916666,100.23327884674072L212.03126885416668,170.03232650756837L212.05446166666667,119.6350564956665L212.44873947916668,132.43549118041992L212.61108916666666,112.69672050476075L213.14452385416666,105.06080017089843L213.2372951041667,105.77340774536133L213.49241604166667,110.78323345184326L213.56199447916666,127.69618492126466L213.95627229166666,110.10232658386231L214.09542916666666,117.3962911605835L214.39693572916667,189.19339485168456L214.86079197916666,199.22074356079102L215.06952729166667,107.56478462219238L215.44061229166667,128.99382076263427L215.48699791666667,126.12917747497559L215.69573322916668,105.50953903198243L215.9044685416667,158.6393829345703L216.09001104166668,105.4345916748047L216.55386729166665,140.23727474212646L216.60025291666668,134.4794609069824L216.66983135416666,123.94601497650146L216.71621697916666,138.30035820007325L216.85537385416666,158.1111053466797L217.13368760416668,146.19575843811035L217.15688041666667,120.5640998840332L217.31923010416668,148.76766815185547L217.38880854166666,148.82360858917235L217.50477260416667,133.93561992645263L217.6671222916667,154.1015567779541L217.71350791666666,146.0549789428711L218.89634135416668,125.86969757080078L219.15146229166666,166.77846336364746L219.22104072916667,182.84211273193358L219.33700479166666,175.608544921875L219.70808979166665,206.8641586303711L219.80086104166668,182.37689895629882L219.82405385416666,171.0147445678711L219.87043947916666,131.6739652633667L220.1023676041667,153.8803270339966L220.19513885416666,157.27429447174072L220.28791010416668,115.3962432861328L220.49664541666667,173.13116340637208L220.51983822916668,162.7138858795166L220.63580229166666,122.13320045471193L220.72857354166666,110.76263980865478L220.75176635416665,113.76212081909179L221.09965854166666,127.3876516342163L221.81863572916666,176.86104354858398L222.09694947916668,109.96694869995117L222.25929916666666,150.18950729370118L222.37526322916668,140.81507835388183L222.69996260416664,148.49387397766114L222.90869791666668,150.70239028930663L223.2565901041667,116.44624900817871L223.51171104166667,94.66833629608155L223.67406072916665,137.81664390563964L223.69725354166667,153.4967113494873L223.90598885416665,134.40329818725587L224.78731572916666,134.68428325653076L224.85689416666668,148.7086893081665L224.90327979166668,128.76735820770264L224.97285822916666,101.62125663757324L224.99605104166665,103.10845527648925L225.08882229166667,120.31856288909913L225.83099229166666,124.30778789520264L226.15569166666666,78.82763843536377L226.7818976041667,122.27232570648192L226.92105447916666,107.6219404220581L227.01382572916668,157.40930099487304L227.43129635416665,150.53912658691405L227.54726041666666,101.636887550354L227.89515260416667,139.16329936981202L227.96473104166665,101.17960739135742L228.03430947916667,117.93587837219238L228.52135854166664,159.25341110229493L228.77647947916668,146.89229621887208L229.0779860416667,197.20388317108154L229.10117885416668,160.89330654144288L229.33310697916667,117.97534389495848L229.40268541666666,98.17381324768067L229.49545666666666,157.54474639892578L229.88973447916666,117.20321731567384L229.9361201041667,136.47734813690187L230.00569854166667,142.6414981842041L230.49274760416668,185.01325664520263L230.53913322916668,169.4721794128418L230.6550972916667,147.11902885437013L230.91021822916667,127.81583061218262L231.09576072916667,114.77661094665527L231.18853197916667,110.97104072570801L231.58280979166668,133.7312364578247L231.72196666666667,155.70536270141602L231.95389479166667,91.65764694213867L232.00028041666667,140.25472869873047L232.13943729166667,157.27875080108643L232.25540135416668,96.17987594604492L232.37136541666666,106.02468395233154L232.44094385416668,163.01117706298828L232.78883604166668,172.76800632476807L232.81202885416667,168.88556442260742L233.43823479166664,78.13869667053223L233.62377729166664,168.2573907852173L233.85570541666667,151.4004810333252L234.11082635416665,125.39074344635009L234.59787541666665,165.67329368591308L234.99215322916666,184.21476345062257L235.01534604166665,180.6253252029419L235.7575160416667,114.98622722625731L235.78070885416668,128.6836332321167L235.91986572916667,169.07080593109131L237.12589197916665,171.2619358062744L237.17227760416668,152.44731330871582L237.3346272916667,135.51721172332765L237.40420572916668,130.49256534576415L237.56655541666666,150.7603563308716L238.19276135416666,73.93654689788819L238.67981041666667,158.91341342926026L238.9117385416667,160.71863193511962L239.2828235416667,148.61264190673828L239.32920916666666,134.0426055908203L239.37559479166666,113.48771896362305L239.49155885416667,106.67645587921143L240.23372885416666,90.37206344604492L240.34969291666667,215.6628770828247L240.60481385416665,101.7366147994995L240.62800666666666,116.54165496826172L240.65119947916665,94.44963855743408L240.72077791666666,137.52745513916017L241.09186291666666,153.82762756347657L241.71806885416666,156.0584592819214L241.78764729166667,124.61591606140138L242.2515035416667,149.81612091064454L242.39066041666666,99.09937934875488L242.41385322916665,109.35180644989013L243.01686635416667,146.90843353271484L243.17921604166668,203.69091453552247L243.3415657291667,109.14536361694336L244.10692854166666,124.08166294097902L244.17650697916665,119.98808555603028L244.61717041666668,117.76717929840089L244.64036322916667,149.2012825012207L244.84909854166665,171.48319931030272L245.01144822916666,115.71753787994385L245.08102666666667,134.582057762146L245.24337635416668,126.35499858856201L245.31295479166667,91.52436218261718L245.75361822916665,117.70826797485353L245.82319666666666,112.69155521392823L246.07831760416667,151.75269985198975L246.33343854166668,99.83163528442383L246.56536666666668,147.60956268310548L246.61175229166665,129.39526176452637L246.63494510416666,91.03254547119141L246.70452354166667,135.01658363342284L247.26115104166666,134.68843574523925L247.37711510416668,158.58556938171387L247.40030791666666,167.84426879882812L247.49307916666666,129.76905326843263L247.93374260416667,124.47733097076417L247.95693541666668,155.4673542022705L248.16567072916666,157.30471229553223L248.35121322916666,160.12705421447754L248.62952697916668,145.32569389343263L249.55723947916667,157.41730213165283L249.76597479166665,108.39271659851075L249.78916760416666,124.8461597442627L249.92832447916666,144.95838432312013L249.97471010416666,125.71132907867431L250.18344541666667,156.85992336273193L250.99519385416667,105.92438278198242L251.64459260416666,150.53750610351562L251.71417104166665,170.44828433990477L251.7837494791667,180.7980079650879L251.99248479166667,132.0757776260376L252.6418835416667,149.7584924697876L253.19851104166668,164.70816078186036L253.43043916666667,131.88736267089843L254.70604385416667,187.29084606170653L254.84520072916666,151.32438583374022L254.9379719791667,88.03019485473634L255.00755041666667,98.45105094909668L255.26267135416666,110.71365394592286L255.63375635416668,178.88988876342773L255.68014197916668,156.92984046936036L255.7961060416667,110.33284034729004L256.5150832291667,165.63085727691652L256.6310472916667,164.6368257522583L256.65424010416666,151.14809074401856L256.7006257291667,106.55572986602783L256.9789394791667,181.65088863372802L257.02532510416665,153.82188835144044L257.30363885416665,168.2319019317627L257.5355669791667,136.6561752319336L257.69791666666663,137.08587341308595" style="fill: none;" fill="none"></path></g></g></g></g></g></g><g transform="translate(48, 177)" clip-path="url(#clip_1)"><clipPath id="clip_1"><rect width="281" height="23"></rect></clipPath><g><g><line x1="0" y1="0" x2="0" y2="5" style="visibility: inherit;" fill="rgb(0, 0, 0)" stroke="rgb(204, 204, 204)" stroke-width="1px"></line><line x1="23.427083333333332" y1="0" x2="23.427083333333332" y2="5" style="visibility: inherit;" fill="rgb(0, 0, 0)" stroke="rgb(204, 204, 204)" stroke-width="1px"></line><line x1="46.854166666666664" y1="0" x2="46.854166666666664" y2="5" style="visibility: inherit;" fill="rgb(0, 0, 0)" stroke="rgb(204, 204, 204)" stroke-width="1px"></line><line x1="70.28125" y1="0" x2="70.28125" y2="5" style="visibility: inherit;" fill="rgb(0, 0, 0)" stroke="rgb(204, 204, 204)" stroke-width="1px"></line><line x1="93.70833333333333" y1="0" x2="93.70833333333333" y2="5" style="visibility: inherit;" fill="rgb(0, 0, 0)" stroke="rgb(204, 204, 204)" stroke-width="1px"></line><line x1="117.13541666666667" y1="0" x2="117.13541666666667" y2="5" style="visibility: inherit;" fill="rgb(0, 0, 0)" stroke="rgb(204, 204, 204)" stroke-width="1px"></line><line x1="140.5625" y1="0" x2="140.5625" y2="5" style="visibility: inherit;" fill="rgb(0, 0, 0)" stroke="rgb(204, 204, 204)" stroke-width="1px"></line><line x1="163.98958333333334" y1="0" x2="163.98958333333334" y2="5" style="visibility: inherit;" fill="rgb(0, 0, 0)" stroke="rgb(204, 204, 204)" stroke-width="1px"></line><line x1="187.41666666666666" y1="0" x2="187.41666666666666" y2="5" style="visibility: inherit;" fill="rgb(0, 0, 0)" stroke="rgb(204, 204, 204)" stroke-width="1px"></line><line x1="210.84375" y1="0" x2="210.84375" y2="5" style="visibility: inherit;" fill="rgb(0, 0, 0)" stroke="rgb(204, 204, 204)" stroke-width="1px"></line><line x1="234.27083333333334" y1="0" x2="234.27083333333334" y2="5" style="visibility: inherit;" fill="rgb(0, 0, 0)" stroke="rgb(204, 204, 204)" stroke-width="1px"></line><line x1="257.69791666666663" y1="0" x2="257.69791666666663" y2="5" style="visibility: inherit;" fill="rgb(0, 0, 0)" stroke="rgb(204, 204, 204)" stroke-width="1px"></line><line x1="281.125" y1="0" x2="281.125" y2="5" style="visibility: inherit;" fill="rgb(0, 0, 0)" stroke="rgb(204, 204, 204)" stroke-width="1px"></line></g><g transform="translate(0, 8)"><text x="0" y="0" dx="0em" dy="0.95em" style="text-anchor: middle; visibility: hidden; font-family: &quot;Helvetica Neue&quot;, sans-serif; font-size: 12px; font-weight: 200;" fill="rgb(50, 49, 63)" stroke="none" stroke-width="1px">-100k</text><text x="23.427083333333332" y="0" dx="0em" dy="0.95em" style="text-anchor: middle; visibility: inherit; font-family: &quot;Helvetica Neue&quot;, sans-serif; font-size: 12px; font-weight: 200;" fill="rgb(50, 49, 63)" stroke="none" stroke-width="1px">0</text><text x="46.854166666666664" y="0" dx="0em" dy="0.95em" style="text-anchor: middle; visibility: hidden; font-family: &quot;Helvetica Neue&quot;, sans-serif; font-size: 12px; font-weight: 200;" fill="rgb(50, 49, 63)" stroke="none" stroke-width="1px">100k</text><text x="70.28125" y="0" dx="0em" dy="0.95em" style="text-anchor: middle; visibility: inherit; font-family: &quot;Helvetica Neue&quot;, sans-serif; font-size: 12px; font-weight: 200;" fill="rgb(50, 49, 63)" stroke="none" stroke-width="1px">200k</text><text x="93.70833333333333" y="0" dx="0em" dy="0.95em" style="text-anchor: middle; visibility: hidden; font-family: &quot;Helvetica Neue&quot;, sans-serif; font-size: 12px; font-weight: 200;" fill="rgb(50, 49, 63)" stroke="none" stroke-width="1px">300k</text><text x="117.13541666666667" y="0" dx="0em" dy="0.95em" style="text-anchor: middle; visibility: inherit; font-family: &quot;Helvetica Neue&quot;, sans-serif; font-size: 12px; font-weight: 200;" fill="rgb(50, 49, 63)" stroke="none" stroke-width="1px">400k</text><text x="140.5625" y="0" dx="0em" dy="0.95em" style="text-anchor: middle; visibility: hidden; font-family: &quot;Helvetica Neue&quot;, sans-serif; font-size: 12px; font-weight: 200;" fill="rgb(50, 49, 63)" stroke="none" stroke-width="1px">500k</text><text x="163.98958333333334" y="0" dx="0em" dy="0.95em" style="text-anchor: middle; visibility: inherit; font-family: &quot;Helvetica Neue&quot;, sans-serif; font-size: 12px; font-weight: 200;" fill="rgb(50, 49, 63)" stroke="none" stroke-width="1px">600k</text><text x="187.41666666666666" y="0" dx="0em" dy="0.95em" style="text-anchor: middle; visibility: hidden; font-family: &quot;Helvetica Neue&quot;, sans-serif; font-size: 12px; font-weight: 200;" fill="rgb(50, 49, 63)" stroke="none" stroke-width="1px">700k</text><text x="210.84375" y="0" dx="0em" dy="0.95em" style="text-anchor: middle; visibility: inherit; font-family: &quot;Helvetica Neue&quot;, sans-serif; font-size: 12px; font-weight: 200;" fill="rgb(50, 49, 63)" stroke="none" stroke-width="1px">800k</text><text x="234.27083333333334" y="0" dx="0em" dy="0.95em" style="text-anchor: middle; visibility: hidden; font-family: &quot;Helvetica Neue&quot;, sans-serif; font-size: 12px; font-weight: 200;" fill="rgb(50, 49, 63)" stroke="none" stroke-width="1px">900k</text><text x="257.69791666666663" y="0" dx="0em" dy="0.95em" style="text-anchor: middle; visibility: inherit; font-family: &quot;Helvetica Neue&quot;, sans-serif; font-size: 12px; font-weight: 200;" fill="rgb(50, 49, 63)" stroke="none" stroke-width="1px">1M</text><text x="281.125" y="0" dx="0em" dy="0.95em" style="text-anchor: middle; visibility: hidden; font-family: &quot;Helvetica Neue&quot;, sans-serif; font-size: 12px; font-weight: 200;" fill="rgb(50, 49, 63)" stroke="none" stroke-width="1px">1.1M</text></g><line x1="0" y1="0" x2="281.125" y2="0" fill="rgb(0, 0, 0)" stroke="rgb(204, 204, 204)" stroke-width="1px"></line></g></g></g></g></svg>